<?xml version="1.0" encoding="UTF-8"?>
<!DOCTYPE svg PUBLIC "-//W3C//DTD SVG 1.1//EN" "http://www.w3.org/Graphics/SVG/1.1/DTD/svg11.dtd">
<svg xmlns="http://www.w3.org/2000/svg" version="1.1" width="624px" height="624px" style="shape-rendering:geometricPrecision; text-rendering:geometricPrecision; image-rendering:optimizeQuality; fill-rule:evenodd; clip-rule:evenodd" xmlns:xlink="http://www.w3.org/1999/xlink">
<g><path style="opacity:1" fill="#f5f7f8" d="M -0.5,-0.5 C 207.5,-0.5 415.5,-0.5 623.5,-0.5C 623.5,207.5 623.5,415.5 623.5,623.5C 415.5,623.5 207.5,623.5 -0.5,623.5C -0.5,415.5 -0.5,207.5 -0.5,-0.5 Z"/></g>
<g><path style="opacity:1" fill="#b9cded" d="M 322.5,108.5 C 309.821,108.475 297.155,108.808 284.5,109.5C 292.115,108.04 299.949,107.373 308,107.5C 313.012,107.501 317.845,107.834 322.5,108.5 Z"/></g>
<g><path style="opacity:1" fill="#6b96e0" d="M 322.5,108.5 C 394.493,115.346 445.993,151.346 477,216.5C 480.287,226.075 483.287,235.742 486,245.5C 487.497,256.806 488.664,268.139 489.5,279.5C 483.923,271.923 481.59,272.923 482.5,282.5C 469.422,215.565 430.755,170.065 366.5,146C 358.512,144.005 350.512,142.005 342.5,140C 336.228,138.652 329.895,137.818 323.5,137.5C 317.843,136.834 312.01,136.501 306,136.5C 297.608,136.298 289.441,136.965 281.5,138.5C 228.064,146.12 186.231,172.12 156,216.5C 128.161,261.218 122.828,308.551 140,358.5C 165.495,418.83 210.328,455.496 274.5,468.5C 272.167,468.5 269.833,468.5 267.5,468.5C 270.646,481.926 273.979,495.259 277.5,508.5C 285.922,509.904 294.255,510.904 302.5,511.5C 264.954,511.26 229.954,501.76 197.5,483C 146.401,451.295 112.901,406.461 97,348.5C 86.9966,299.864 94.9966,254.53 121,212.5C 159.316,152.744 213.816,118.411 284.5,109.5C 297.155,108.808 309.821,108.475 322.5,108.5 Z"/></g>
<g><path style="opacity:1" fill="#c3d4f0" d="M 323.5,137.5 C 309.484,137.349 295.484,137.682 281.5,138.5C 289.441,136.965 297.608,136.298 306,136.5C 312.01,136.501 317.843,136.834 323.5,137.5 Z"/></g>
<g><path style="opacity:1" fill="#262b56" d="M 432.5,324.5 C 432.717,328.705 433.383,332.705 434.5,336.5C 435.82,344.647 440.653,348.647 449,348.5C 457.057,347.781 462.057,343.447 464,335.5C 465.062,334.101 466.395,333.101 468,332.5C 473.056,334.863 478.056,337.197 483,339.5C 480.47,356.037 471.303,367.204 455.5,373C 436.843,378.117 422.01,372.951 411,357.5C 408.591,353.108 407.091,348.442 406.5,343.5C 406.59,340.848 405.924,338.515 404.5,336.5C 401.77,320.288 392.104,312.788 375.5,314C 366.298,316.535 360.465,322.369 358,331.5C 357.667,352.833 357.333,374.167 357,395.5C 355.167,400 352,403.167 347.5,405C 332.5,405.667 317.5,405.667 302.5,405C 297.667,403.5 294.5,400.333 293,395.5C 292.667,387.167 292.333,378.833 292,370.5C 285.935,355.051 274.768,349.551 258.5,354C 252.469,357.694 248.303,362.861 246,369.5C 245.667,377.833 245.333,386.167 245,394.5C 243.594,399.573 240.428,403.073 235.5,405C 220.5,405.667 205.5,405.667 190.5,405C 184.843,403.217 181.343,399.384 180,393.5C 179.041,358.466 179.374,323.466 181,288.5C 188.493,260.839 206.326,244.506 234.5,239.5C 234.958,243.538 235.624,247.538 236.5,251.5C 236.41,254.152 237.076,256.485 238.5,258.5C 243.578,277.553 250.745,295.886 260,313.5C 273.768,333.734 291.601,338.234 313.5,327C 323.333,321.167 331.167,313.333 337,303.5C 337.667,301.5 337.667,299.5 337,297.5C 334.367,292.933 330.533,291.433 325.5,293C 317.434,305.954 305.934,314.121 291,317.5C 287.073,316.952 283.573,315.452 280.5,313C 271.944,304.734 265.778,294.901 262,283.5C 258.289,271.945 254.955,260.279 252,248.5C 250.556,241.23 249.723,233.896 249.5,226.5C 249.822,218.271 249.155,210.271 247.5,202.5C 246.349,186.96 253.349,177.46 268.5,174C 282.223,173.074 295.889,173.407 309.5,175C 317.54,177.717 324.54,182.051 330.5,188C 373.202,188.085 403.035,207.585 420,246.5C 424.924,272.379 429.091,298.379 432.5,324.5 Z"/></g>
<g><path style="opacity:1" fill="#707390" d="M 247.5,202.5 C 249.155,210.271 249.822,218.271 249.5,226.5C 248.443,218.681 247.776,210.681 247.5,202.5 Z"/></g>
<g><path style="opacity:1" fill="#e9ebef" d="M 379.5,239.5 C 391.525,237.728 398.025,242.728 399,254.5C 390.803,245.194 382.47,245.194 374,254.5C 373.185,256.623 372.185,258.623 371,260.5C 367.763,250.982 370.596,243.982 379.5,239.5 Z"/></g>
<g><path style="opacity:1" fill="#727691" d="M 236.5,251.5 C 237.924,253.515 238.59,255.848 238.5,258.5C 237.076,256.485 236.41,254.152 236.5,251.5 Z"/></g>
<g><path style="opacity:1" fill="#6c96df" d="M 550.5,307.5 C 547.651,307.267 545.484,305.934 544,303.5C 543.79,305.058 543.29,306.391 542.5,307.5C 542.321,301.564 545.321,298.73 551.5,299C 557.004,295.749 562.338,292.249 567.5,288.5C 569.508,284.771 570.008,280.771 569,276.5C 564.193,273.217 564.693,270.717 570.5,269C 579.29,266.932 586.79,269.099 593,275.5C 593.79,278.634 593.457,281.634 592,284.5C 587.041,290.465 581.208,295.298 574.5,299C 567.562,301.883 560.396,304.05 553,305.5C 551.624,305.684 550.791,306.351 550.5,307.5 Z"/></g>
<g><path style="opacity:1" fill="#698ed7" d="M 524.5,253.5 C 528.603,252.769 532.103,253.769 535,256.5C 535.667,260.833 535.667,265.167 535,269.5C 526.32,288.48 515.654,306.147 503,322.5C 501.373,324.312 499.873,324.479 498.5,323C 503.191,304.925 508.691,287.092 515,269.5C 517.423,263.643 520.589,258.31 524.5,253.5 Z"/></g>
<g><path style="opacity:1" fill="#6182cb" d="M 489.5,279.5 C 489.547,289.516 489.213,299.516 488.5,309.5C 487.076,311.515 486.41,313.848 486.5,316.5C 485.885,320.848 484.385,324.848 482,328.5C 481.833,327.5 481.667,326.5 481.5,325.5C 483.809,311.231 484.142,296.897 482.5,282.5C 481.59,272.923 483.923,271.923 489.5,279.5 Z"/></g>
<g><path style="opacity:1" fill="#6385ce" d="M 550.5,307.5 C 559.145,310.612 560.478,315.445 554.5,322C 538.401,329.753 521.401,333.42 503.5,333C 509.78,330.182 516.113,327.515 522.5,325C 526.659,321.753 530.992,318.753 535.5,316C 538.2,313.412 540.533,310.579 542.5,307.5C 543.29,306.391 543.79,305.058 544,303.5C 545.484,305.934 547.651,307.267 550.5,307.5 Z"/></g>
<g><path style="opacity:1" fill="#a7b7de" d="M 488.5,309.5 C 488.59,312.152 487.924,314.485 486.5,316.5C 486.41,313.848 487.076,311.515 488.5,309.5 Z"/></g>
<g><path style="opacity:1" fill="#a1a4b6" d="M 432.5,324.5 C 434.25,328.183 434.917,332.183 434.5,336.5C 433.383,332.705 432.717,328.705 432.5,324.5 Z"/></g>
<g><path style="opacity:1" fill="#7d819a" d="M 404.5,336.5 C 405.924,338.515 406.59,340.848 406.5,343.5C 405.076,341.485 404.41,339.152 404.5,336.5 Z"/></g>
<g><path style="opacity:1" fill="#6582ca" d="M 550.5,335.5 C 558.513,335.303 566.013,336.969 573,340.5C 575.403,346.214 573.903,350.714 568.5,354C 562.5,354.667 556.5,354.667 550.5,354C 538.473,351.894 526.473,349.728 514.5,347.5C 514.5,346.167 514.5,344.833 514.5,343.5C 526.338,339.537 538.338,336.871 550.5,335.5 Z"/></g>
<g><path style="opacity:1" fill="#eff2f6" d="M 548.5,340.5 C 553.663,340.08 558.496,341.08 563,343.5C 563.49,344.793 563.657,346.127 563.5,347.5C 550.801,348.276 538.134,347.61 525.5,345.5C 526.025,344.808 526.692,344.308 527.5,344C 534.61,342.607 541.61,341.44 548.5,340.5 Z"/></g>
<g><path style="opacity:1" fill="#4b57a4" d="M 473.5,416.5 C 474.014,414.488 474.18,412.488 474,410.5C 458.966,395.261 441.799,392.427 422.5,402C 419.669,403.666 417.336,405.832 415.5,408.5C 413.637,406.295 411.303,404.961 408.5,404.5C 397.5,403.833 386.5,403.167 375.5,402.5C 378.263,397.574 382.263,393.741 387.5,391C 409.283,382.936 430.616,383.936 451.5,394C 452.5,395 453.5,396 454.5,397C 462.493,397.5 470.493,397.666 478.5,397.5C 477.957,404.253 476.29,410.587 473.5,416.5 Z"/></g>
<g><path style="opacity:1" fill="#46509d" d="M 473.5,416.5 C 472.624,420.582 470.957,424.249 468.5,427.5C 465.795,418.959 460.128,413.126 451.5,410C 434.011,407.158 422.178,413.991 416,430.5C 413.46,448.776 420.96,460.442 438.5,465.5C 432.037,471.233 425.037,476.233 417.5,480.5C 407.283,474.424 400.116,465.757 396,454.5C 395.297,452.071 395.463,449.738 396.5,447.5C 401.469,443.363 405.969,438.696 410,433.5C 410.847,431.807 411.68,430.14 412.5,428.5C 414.655,426.383 415.655,423.716 415.5,420.5C 415.5,416.5 415.5,412.5 415.5,408.5C 417.336,405.832 419.669,403.666 422.5,402C 441.799,392.427 458.966,395.261 474,410.5C 474.18,412.488 474.014,414.488 473.5,416.5 Z"/></g>
<g><path style="opacity:1" fill="#c9cee3" d="M 375.5,402.5 C 386.5,403.167 397.5,403.833 408.5,404.5C 397.147,404.832 385.814,404.499 374.5,403.5C 374.624,402.893 374.957,402.56 375.5,402.5 Z"/></g>
<g><path style="opacity:1" fill="#424795" d="M 468.5,427.5 C 461.849,442.798 451.849,455.465 438.5,465.5C 420.96,460.442 413.46,448.776 416,430.5C 422.178,413.991 434.011,407.158 451.5,410C 460.128,413.126 465.795,418.959 468.5,427.5 Z"/></g>
<g><path style="opacity:1" fill="#858abc" d="M 415.5,420.5 C 415.655,423.716 414.655,426.383 412.5,428.5C 413.129,425.603 414.129,422.936 415.5,420.5 Z"/></g>
<g><path style="opacity:1" fill="#4e5eaa" d="M 396.5,447.5 C 395.463,449.738 395.297,452.071 396,454.5C 400.116,465.757 407.283,474.424 417.5,480.5C 408.365,487.067 398.365,492.067 387.5,495.5C 384.944,494.457 382.777,492.79 381,490.5C 376.75,484.335 372.75,478.002 369,471.5C 366.323,463.636 364.156,455.636 362.5,447.5C 363.487,444.854 364.487,442.188 365.5,439.5C 366.167,438.167 366.833,438.167 367.5,439.5C 370.258,445.868 371.758,452.535 372,459.5C 375.932,457.411 380.099,455.911 384.5,455C 388.388,452.228 392.388,449.728 396.5,447.5 Z"/></g>
<g><path style="opacity:1" fill="#5367b3" d="M 362.5,447.5 C 364.156,455.636 366.323,463.636 369,471.5C 372.75,478.002 376.75,484.335 381,490.5C 382.777,492.79 384.944,494.457 387.5,495.5C 381.052,499.201 374.052,501.534 366.5,502.5C 360.59,494.357 355.423,485.691 351,476.5C 349.669,472.174 348.502,467.84 347.5,463.5C 353.544,459.124 358.544,453.79 362.5,447.5 Z"/></g>
<g><path style="opacity:1" fill="#6589d3" d="M 274.5,468.5 C 287.437,470.164 300.437,470.831 313.5,470.5C 307.355,471.49 301.022,471.823 294.5,471.5C 296.531,484.908 300.864,497.575 307.5,509.5C 313.463,510.496 319.463,510.829 325.5,510.5C 318.018,511.492 310.352,511.825 302.5,511.5C 294.255,510.904 285.922,509.904 277.5,508.5C 273.979,495.259 270.646,481.926 267.5,468.5C 269.833,468.5 272.167,468.5 274.5,468.5 Z"/></g>
<g><path style="opacity:1" fill="#5872bd" d="M 347.5,463.5 C 348.502,467.84 349.669,472.174 351,476.5C 355.423,485.691 360.59,494.357 366.5,502.5C 358.535,505.574 350.201,507.574 341.5,508.5C 339.983,508.489 338.816,507.823 338,506.5C 330.872,495.297 325.372,483.297 321.5,470.5C 330.618,469.721 339.285,467.388 347.5,463.5 Z"/></g>
<g><path style="opacity:1" fill="#5c7cc7" d="M 313.5,470.5 C 316.167,470.5 318.833,470.5 321.5,470.5C 325.372,483.297 330.872,495.297 338,506.5C 338.816,507.823 339.983,508.489 341.5,508.5C 336.402,509.957 331.069,510.624 325.5,510.5C 319.463,510.829 313.463,510.496 307.5,509.5C 300.864,497.575 296.531,484.908 294.5,471.5C 301.022,471.823 307.355,471.49 313.5,470.5 Z"/></g>
</svg>
