<?xml version="1.0" encoding="UTF-8"?>
<!DOCTYPE svg PUBLIC "-//W3C//DTD SVG 1.1//EN" "http://www.w3.org/Graphics/SVG/1.1/DTD/svg11.dtd">
<svg xmlns="http://www.w3.org/2000/svg" version="1.1" width="2000px" height="2000px" style="shape-rendering:geometricPrecision; text-rendering:geometricPrecision; image-rendering:optimizeQuality; fill-rule:evenodd; clip-rule:evenodd" xmlns:xlink="http://www.w3.org/1999/xlink">
<g><path style="opacity:1" fill="#fefefe" d="M -0.5,-0.5 C 666.167,-0.5 1332.83,-0.5 1999.5,-0.5C 1999.5,666.167 1999.5,1332.83 1999.5,1999.5C 1332.83,1999.5 666.167,1999.5 -0.5,1999.5C -0.5,1332.83 -0.5,666.167 -0.5,-0.5 Z"/></g>
<g><path style="opacity:1" fill="#3479eb" d="M 827.5,379.5 C 829.167,379.5 830.833,379.5 832.5,379.5C 835.123,381.265 838.123,381.932 841.5,381.5C 845.462,382.376 849.462,383.042 853.5,383.5C 859.114,386.368 865.114,388.368 871.5,389.5C 879.877,392.85 888.21,396.517 896.5,400.5C 896.973,401.906 897.973,402.573 899.5,402.5C 917.066,412.449 933.399,424.116 948.5,437.5C 950.239,440.243 952.573,442.243 955.5,443.5C 972.604,459.932 988.604,477.266 1003.5,495.5C 1004.08,497.749 1005.41,499.415 1007.5,500.5C 1010.72,503.273 1013.72,506.273 1016.5,509.5C 1019.28,506.273 1022.28,503.273 1025.5,500.5C 1027.59,499.415 1028.92,497.749 1029.5,495.5C 1034.82,488.843 1040.49,482.51 1046.5,476.5C 1048.59,475.415 1049.92,473.749 1050.5,471.5C 1068.47,451.36 1088.13,433.193 1109.5,417C 1113.07,414.579 1116.74,412.413 1120.5,410.5C 1122.97,409.702 1124.97,408.369 1126.5,406.5C 1130.6,402.939 1135.27,400.106 1140.5,398C 1150.26,393.279 1160.26,389.446 1170.5,386.5C 1173.15,386.59 1175.49,385.924 1177.5,384.5C 1180.22,383.087 1183.22,382.42 1186.5,382.5C 1190.82,382.917 1194.82,382.25 1198.5,380.5C 1212.82,379.702 1227.15,379.369 1241.5,379.5C 1248.83,380.5 1256.17,381.5 1263.5,382.5C 1265.91,383.768 1268.57,384.435 1271.5,384.5C 1273.91,385.768 1276.57,386.435 1279.5,386.5C 1284.37,389.343 1289.7,391.009 1295.5,391.5C 1301.15,394.727 1307.15,397.394 1313.5,399.5C 1313.97,400.906 1314.97,401.573 1316.5,401.5C 1320.18,404.008 1324.18,406.008 1328.5,407.5C 1328.97,408.906 1329.97,409.573 1331.5,409.5C 1344.17,417.175 1356.17,425.841 1367.5,435.5C 1369.9,438.903 1372.9,441.57 1376.5,443.5C 1384.91,451.573 1392.58,460.239 1399.5,469.5C 1400.08,471.749 1401.41,473.415 1403.5,474.5C 1408.6,479.936 1412.93,485.936 1416.5,492.5C 1416.92,494.094 1417.59,495.594 1418.5,497C 1418.11,498.011 1417.44,498.511 1416.5,498.5C 1419.12,498.976 1421.12,500.309 1422.5,502.5C 1422.17,503.167 1421.83,503.833 1421.5,504.5C 1422.73,506.321 1424.39,507.321 1426.5,507.5C 1437.34,524.179 1446.34,541.846 1453.5,560.5C 1453.05,563.01 1453.72,565.01 1455.5,566.5C 1456.34,566.842 1456.67,567.508 1456.5,568.5C 1456.75,570.967 1457.75,572.967 1459.5,574.5C 1460.17,576.833 1460.83,579.167 1461.5,581.5C 1461.26,583.898 1461.93,585.898 1463.5,587.5C 1467.7,597.134 1471.04,607.134 1473.5,617.5C 1473.41,620.152 1474.08,622.485 1475.5,624.5C 1475.41,627.152 1476.08,629.485 1477.5,631.5C 1478.42,637.051 1479.75,642.385 1481.5,647.5C 1484.12,658.664 1486.45,669.998 1488.5,681.5C 1489.31,687.665 1490.31,693.665 1491.5,699.5C 1492.17,705.167 1492.83,710.833 1493.5,716.5C 1493.91,726.003 1494.57,735.336 1495.5,744.5C 1495.5,744.833 1495.5,745.167 1495.5,745.5C 1495.7,767.849 1495.2,790.183 1494,812.5C 1492.02,824.425 1490.86,836.425 1490.5,848.5C 1487.02,867.967 1482.68,887.301 1477.5,906.5C 1475.6,909.518 1474.27,912.851 1473.5,916.5C 1473.5,916.833 1473.5,917.167 1473.5,917.5C 1472.46,918.93 1471.8,920.597 1471.5,922.5C 1464.14,940.221 1454.47,956.554 1442.5,971.5C 1438.83,974.5 1435.5,977.833 1432.5,981.5C 1430.5,982.833 1428.83,984.5 1427.5,986.5C 1425.25,987.08 1423.58,988.413 1422.5,990.5C 1414.35,996.299 1405.68,1001.3 1396.5,1005.5C 1394.03,1005.75 1392.03,1006.75 1390.5,1008.5C 1389.39,1008.56 1388.39,1008.89 1387.5,1009.5C 1384.85,1009.41 1382.51,1010.08 1380.5,1011.5C 1365.27,1014.54 1349.94,1015.21 1334.5,1013.5C 1330.31,1010.91 1325.64,1009.91 1320.5,1010.5C 1317.57,1010.43 1314.91,1009.77 1312.5,1008.5C 1309.86,1006.69 1306.86,1005.69 1303.5,1005.5C 1301.71,1005.63 1300.04,1005.3 1298.5,1004.5C 1296.97,1002.75 1294.97,1001.75 1292.5,1001.5C 1283.52,997.677 1274.85,993.343 1266.5,988.5C 1266.03,987.094 1265.03,986.427 1263.5,986.5C 1235.26,969.455 1209.43,949.121 1186,925.5C 1155.48,893.504 1128.65,858.838 1105.5,821.5C 1105.57,819.973 1104.91,818.973 1103.5,818.5C 1102.01,814.863 1100.01,811.53 1097.5,808.5C 1097.57,806.973 1096.91,805.973 1095.5,805.5C 1090.99,796.471 1085.99,787.804 1080.5,779.5C 1079.53,776.9 1078.2,774.566 1076.5,772.5C 1072.48,765.132 1068.48,757.798 1064.5,750.5C 1064.57,748.973 1063.91,747.973 1062.5,747.5C 1062.25,745.033 1061.25,743.033 1059.5,741.5C 1059.57,739.973 1058.91,738.973 1057.5,738.5C 1054.42,732.001 1051.08,725.668 1047.5,719.5C 1047.57,717.973 1046.91,716.973 1045.5,716.5C 1044.67,713.515 1043.34,710.849 1041.5,708.5C 1041.57,706.973 1040.91,705.973 1039.5,705.5C 1037.75,701.665 1035.75,697.999 1033.5,694.5C 1033.25,692.033 1032.25,690.033 1030.5,688.5C 1029.34,684.856 1027.68,681.523 1025.5,678.5C 1025.57,676.973 1024.91,675.973 1023.5,675.5C 1021.68,671.199 1019.35,667.199 1016.5,663.5C 1014.74,664.688 1013.74,666.355 1013.5,668.5C 1012.09,668.973 1011.43,669.973 1011.5,671.5C 1003.28,686.27 995.279,701.27 987.5,716.5C 984.742,719.678 982.742,723.345 981.5,727.5C 979.25,730.999 977.25,734.665 975.5,738.5C 973.058,740.121 971.725,742.454 971.5,745.5C 970.662,745.842 970.328,746.508 970.5,747.5C 966.74,752.684 963.74,758.35 961.5,764.5C 959.347,766.794 957.68,769.46 956.5,772.5C 955.094,772.973 954.427,773.973 954.5,775.5C 952.975,777.216 951.975,779.216 951.5,781.5C 949.076,784.008 947.41,787.008 946.5,790.5C 943.137,795.216 940.137,800.216 937.5,805.5C 936.094,805.973 935.427,806.973 935.5,808.5C 919.736,834.278 902.736,859.278 884.5,883.5C 882.413,884.585 881.08,886.251 880.5,888.5C 879.5,888.833 878.833,889.5 878.5,890.5C 875.608,893.271 872.942,896.271 870.5,899.5C 868.5,901.833 866.5,904.167 864.5,906.5C 862.413,907.585 861.08,909.251 860.5,911.5C 854.833,916.5 849.5,921.833 844.5,927.5C 841.167,930.167 838.167,933.167 835.5,936.5C 815.607,954.772 794.274,971.106 771.5,985.5C 769.973,985.427 768.973,986.094 768.5,987.5C 760.105,992.364 751.438,996.698 742.5,1000.5C 736.267,1002.46 730.267,1004.8 724.5,1007.5C 717.548,1009.32 710.548,1010.99 703.5,1012.5C 698.972,1012.77 694.639,1013.44 690.5,1014.5C 680.794,1014.75 671.127,1014.42 661.5,1013.5C 659.485,1012.08 657.152,1011.41 654.5,1011.5C 650.239,1011.1 646.239,1010.1 642.5,1008.5C 640.824,1006.17 638.491,1005.17 635.5,1005.5C 633.847,1005.34 632.514,1004.67 631.5,1003.5C 631.027,1002.09 630.027,1001.43 628.5,1001.5C 616.752,995.754 606.419,988.087 597.5,978.5C 595.5,975.833 593.167,973.5 590.5,971.5C 585.42,965.762 580.754,959.762 576.5,953.5C 575.492,951.456 574.492,949.456 573.5,947.5C 572.599,946.71 571.932,945.71 571.5,944.5C 571.573,942.973 570.906,941.973 569.5,941.5C 567.312,936.945 565.312,932.278 563.5,927.5C 562.342,924.011 561.009,920.678 559.5,917.5C 559.5,917.167 559.5,916.833 559.5,916.5C 558.733,912.851 557.4,909.518 555.5,906.5C 551.058,891.061 547.391,875.394 544.5,859.5C 543.388,846.281 541.721,833.281 539.5,820.5C 539.249,815.493 538.916,810.493 538.5,805.5C 537.703,785.511 537.37,765.511 537.5,745.5C 537.5,745.167 537.5,744.833 537.5,744.5C 538.281,737.981 538.948,731.314 539.5,724.5C 540.598,718.021 541.265,711.354 541.5,704.5C 543.107,687.971 545.774,671.637 549.5,655.5C 550.924,653.485 551.59,651.152 551.5,648.5C 552.342,642.603 553.676,636.936 555.5,631.5C 557.471,627.249 558.805,622.582 559.5,617.5C 560.167,614.833 560.833,612.167 561.5,609.5C 562.738,607.786 563.405,605.786 563.5,603.5C 564.63,599.442 565.964,595.442 567.5,591.5C 568.683,590.496 570.016,589.662 571.5,589C 570.709,586.25 570.709,583.417 571.5,580.5C 572.363,578.579 573.029,576.579 573.5,574.5C 575.213,573.365 575.88,571.698 575.5,569.5C 581.375,554.752 588.042,540.419 595.5,526.5C 597.083,524.337 598.416,522.004 599.5,519.5C 607.766,503.287 617.766,488.287 629.5,474.5C 633.729,472.144 636.896,468.811 639,464.5C 639.333,466.167 639.667,467.833 640,469.5C 640.791,467.396 642.291,466.063 644.5,465.5C 643.624,464.749 642.624,464.249 641.5,464C 643.3,461.886 644.3,459.386 644.5,456.5C 662.228,436.756 682.561,420.423 705.5,407.5C 707.848,407.408 709.514,406.408 710.5,404.5C 726.746,395.302 744.079,388.635 762.5,384.5C 764.898,384.741 766.898,384.074 768.5,382.5C 769.833,382.5 771.167,382.5 772.5,382.5C 790.728,379.884 809.061,378.884 827.5,379.5 Z"/></g>
<g><path style="opacity:1" fill="#6699ed" d="M 1241.5,379.5 C 1227.15,379.369 1212.82,379.702 1198.5,380.5C 1200.29,379.691 1202.29,379.191 1204.5,379C 1217.01,378.173 1229.34,378.34 1241.5,379.5 Z"/></g>
<g><path style="opacity:1" fill="#6d9eed" d="M 827.5,379.5 C 809.061,378.884 790.728,379.884 772.5,382.5C 777.906,380.771 783.573,379.605 789.5,379C 802.34,378.173 815.007,378.34 827.5,379.5 Z"/></g>
<g><path style="opacity:1" fill="#83abf1" d="M 832.5,379.5 C 835.829,379.215 838.829,379.882 841.5,381.5C 838.123,381.932 835.123,381.265 832.5,379.5 Z"/></g>
<g><path style="opacity:1" fill="#588feb" d="M 1198.5,380.5 C 1194.82,382.25 1190.82,382.917 1186.5,382.5C 1190.21,380.864 1194.21,380.198 1198.5,380.5 Z"/></g>
<g><path style="opacity:1" fill="#88b0f3" d="M 768.5,382.5 C 766.898,384.074 764.898,384.741 762.5,384.5C 764.102,382.926 766.102,382.259 768.5,382.5 Z"/></g>
<g><path style="opacity:1" fill="#abc8f4" d="M 1263.5,382.5 C 1266.5,382.294 1269.16,382.96 1271.5,384.5C 1268.57,384.435 1265.91,383.768 1263.5,382.5 Z"/></g>
<g><path style="opacity:1" fill="#75a5ee" d="M 1177.5,384.5 C 1175.49,385.924 1173.15,386.59 1170.5,386.5C 1172.51,385.076 1174.85,384.41 1177.5,384.5 Z"/></g>
<g><path style="opacity:1" fill="#bad1f4" d="M 853.5,383.5 C 858.494,384.661 863.494,385.828 868.5,387C 869.942,387.377 870.942,388.21 871.5,389.5C 865.114,388.368 859.114,386.368 853.5,383.5 Z"/></g>
<g><path style="opacity:1" fill="#c7d9f6" d="M 1279.5,386.5 C 1285.1,387.652 1290.43,389.319 1295.5,391.5C 1289.7,391.009 1284.37,389.343 1279.5,386.5 Z"/></g>
<g><path style="opacity:1" fill="#9cbff1" d="M 1313.5,399.5 C 1315.03,399.427 1316.03,400.094 1316.5,401.5C 1314.97,401.573 1313.97,400.906 1313.5,399.5 Z"/></g>
<g><path style="opacity:1" fill="#89b1ef" d="M 896.5,400.5 C 898.027,400.427 899.027,401.094 899.5,402.5C 897.973,402.573 896.973,401.906 896.5,400.5 Z"/></g>
<g><path style="opacity:1" fill="#73a1ec" d="M 710.5,404.5 C 709.514,406.408 707.848,407.408 705.5,407.5C 706.659,405.75 708.326,404.75 710.5,404.5 Z"/></g>
<g><path style="opacity:1" fill="#719eee" d="M 1126.5,406.5 C 1124.97,408.369 1122.97,409.702 1120.5,410.5C 1121.8,408.178 1123.8,406.845 1126.5,406.5 Z"/></g>
<g><path style="opacity:1" fill="#a9c7f3" d="M 1328.5,407.5 C 1330.03,407.427 1331.03,408.094 1331.5,409.5C 1329.97,409.573 1328.97,408.906 1328.5,407.5 Z"/></g>
<g><path style="opacity:1" fill="#b0ccf2" d="M 1367.5,435.5 C 1371.1,437.43 1374.1,440.097 1376.5,443.5C 1372.9,441.57 1369.9,438.903 1367.5,435.5 Z"/></g>
<g><path style="opacity:1" fill="#b7cff4" d="M 948.5,437.5 C 951.427,438.757 953.761,440.757 955.5,443.5C 952.573,442.243 950.239,440.243 948.5,437.5 Z"/></g>
<g><path style="opacity:1" fill="#8fb6f1" d="M 830.5,463.5 C 822.133,463.295 813.8,463.629 805.5,464.5C 806.263,463.732 807.263,463.232 808.5,463C 816.012,462.178 823.345,462.345 830.5,463.5 Z"/></g>
<g><path style="opacity:1" fill="#77a5ee" d="M 1241.5,467.5 C 1225.03,463.533 1208.37,462.533 1191.5,464.5C 1192.61,463.71 1193.94,463.21 1195.5,463C 1205.17,462.333 1214.83,462.333 1224.5,463C 1230.54,463.567 1236.2,465.067 1241.5,467.5 Z"/></g>
<g><path style="opacity:1" fill="#fefefe" d="M 830.5,463.5 C 832.167,463.5 833.833,463.5 835.5,463.5C 838.909,464.903 842.575,465.57 846.5,465.5C 872.906,473.693 894.906,488.36 912.5,509.5C 913.757,512.427 915.757,514.761 918.5,516.5C 923.584,521.248 927.917,526.581 931.5,532.5C 932.419,535.089 934.086,537.089 936.5,538.5C 947.254,551.157 956.921,564.657 965.5,579C 959.789,586.922 954.456,595.089 949.5,603.5C 947.75,604.659 946.75,606.326 946.5,608.5C 935.409,624.614 925.075,641.281 915.5,658.5C 914.094,658.973 913.427,659.973 913.5,661.5C 906.346,672.464 899.679,683.797 893.5,695.5C 891.75,696.659 890.75,698.326 890.5,700.5C 886.11,706.9 882.11,713.566 878.5,720.5C 876.75,721.659 875.75,723.326 875.5,725.5C 873.75,726.659 872.75,728.326 872.5,730.5C 868.918,735.994 865.585,741.661 862.5,747.5C 861.094,747.973 860.427,748.973 860.5,750.5C 859.662,750.842 859.328,751.508 859.5,752.5C 857.75,753.659 856.75,755.326 856.5,757.5C 853.331,761.833 850.664,766.5 848.5,771.5C 847.207,773.808 845.874,776.142 844.5,778.5C 842,781.494 840,784.827 838.5,788.5C 837.094,788.973 836.427,789.973 836.5,791.5C 835.4,792.605 834.733,793.938 834.5,795.5C 832.347,797.794 830.68,800.46 829.5,803.5C 827.489,806.861 825.489,810.194 823.5,813.5C 822.542,813.953 821.708,814.619 821,815.5C 818.157,820.523 815.323,825.523 812.5,830.5C 809.102,833.627 806.435,837.293 804.5,841.5C 801.791,844.208 799.458,847.208 797.5,850.5C 793.155,854.847 789.155,859.514 785.5,864.5C 782.757,866.239 780.757,868.573 779.5,871.5C 764.308,886.361 746.975,898.027 727.5,906.5C 724.848,906.41 722.515,907.076 720.5,908.5C 698.113,914.423 678.946,909.089 663,892.5C 657.39,884.943 652.557,876.943 648.5,868.5C 648.045,864.186 646.379,860.519 643.5,857.5C 642.735,854.33 641.735,851.33 640.5,848.5C 640.435,845.572 639.768,842.905 638.5,840.5C 638.011,834.196 636.678,828.196 634.5,822.5C 634.5,820.833 634.5,819.167 634.5,817.5C 634.468,812.609 633.801,807.943 632.5,803.5C 631.762,790.513 631.429,777.513 631.5,764.5C 632.49,758.69 632.823,752.69 632.5,746.5C 633.946,740.726 634.612,734.726 634.5,728.5C 636.057,722.739 636.724,716.739 636.5,710.5C 637.875,699.121 639.542,687.788 641.5,676.5C 643.61,672.498 644.943,668.165 645.5,663.5C 645.5,663.167 645.5,662.833 645.5,662.5C 647.419,658.143 648.419,653.476 648.5,648.5C 648.232,646.901 648.566,645.568 649.5,644.5C 650.924,642.485 651.59,640.152 651.5,637.5C 652.924,635.485 653.59,633.152 653.5,630.5C 653.796,628.597 654.463,626.93 655.5,625.5C 657.074,623.898 657.741,621.898 657.5,619.5C 658.605,614.625 660.272,609.958 662.5,605.5C 664.834,603.824 665.834,601.491 665.5,598.5C 665.796,596.597 666.463,594.93 667.5,593.5C 668.906,593.027 669.573,592.027 669.5,590.5C 669.833,589.167 670.167,587.833 670.5,586.5C 671.906,586.027 672.573,585.027 672.5,583.5C 673.441,581.95 674.107,580.284 674.5,578.5C 675.906,578.027 676.573,577.027 676.5,575.5C 690.985,546.49 710.318,520.99 734.5,499C 742.455,492.532 750.788,486.699 759.5,481.5C 761.027,481.573 762.027,480.906 762.5,479.5C 772.46,473.62 783.126,469.286 794.5,466.5C 797.152,466.59 799.485,465.924 801.5,464.5C 802.833,464.5 804.167,464.5 805.5,464.5C 813.8,463.629 822.133,463.295 830.5,463.5 Z"/></g>
<g><path style="opacity:1" fill="#72a0ee" d="M 835.5,463.5 C 838.85,463.335 842.183,463.502 845.5,464C 846.056,464.383 846.389,464.883 846.5,465.5C 842.575,465.57 838.909,464.903 835.5,463.5 Z"/></g>
<g><path style="opacity:1" fill="#fefefe" d="M 1241.5,467.5 C 1250.86,470.349 1259.86,474.016 1268.5,478.5C 1269.9,479.89 1271.57,480.89 1273.5,481.5C 1282.7,487.028 1291.37,493.362 1299.5,500.5C 1300.91,502.914 1302.91,504.581 1305.5,505.5C 1312.91,512.575 1319.58,520.242 1325.5,528.5C 1326.08,530.749 1327.41,532.415 1329.5,533.5C 1331.55,535.237 1333.38,537.237 1335,539.5C 1339.44,546.055 1343.61,552.721 1347.5,559.5C 1347.43,561.027 1348.09,562.027 1349.5,562.5C 1354.26,569.686 1358.26,577.353 1361.5,585.5C 1361.43,587.027 1362.09,588.027 1363.5,588.5C 1363.5,589.167 1363.5,589.833 1363.5,590.5C 1363.43,592.027 1364.09,593.027 1365.5,593.5C 1366.54,594.93 1367.2,596.597 1367.5,598.5C 1367.17,601.491 1368.17,603.824 1370.5,605.5C 1373.49,614.086 1376.49,622.753 1379.5,631.5C 1380.06,636.165 1381.39,640.498 1383.5,644.5C 1383.26,646.898 1383.93,648.898 1385.5,650.5C 1385.52,652.565 1385.85,654.565 1386.5,656.5C 1386.72,660.162 1387.72,663.495 1389.5,666.5C 1391.69,678.137 1393.69,689.804 1395.5,701.5C 1395.85,706.68 1396.51,711.68 1397.5,716.5C 1397.5,718.167 1397.5,719.833 1397.5,721.5C 1397.59,728.037 1398.25,734.37 1399.5,740.5C 1399.2,743.059 1399.53,745.393 1400.5,747.5C 1400.5,747.833 1400.5,748.167 1400.5,748.5C 1401.74,766.836 1401.74,785.169 1400.5,803.5C 1400.72,806.279 1400.39,808.946 1399.5,811.5C 1398.51,816.32 1397.85,821.32 1397.5,826.5C 1396.22,830.985 1395.22,835.651 1394.5,840.5C 1394.5,840.833 1394.5,841.167 1394.5,841.5C 1393.08,843.515 1392.41,845.848 1392.5,848.5C 1390.13,853.953 1388.13,859.619 1386.5,865.5C 1385.09,865.973 1384.43,866.973 1384.5,868.5C 1378.05,884.611 1367.38,896.944 1352.5,905.5C 1347.44,907.299 1342.44,908.966 1337.5,910.5C 1332.17,910.5 1326.83,910.5 1321.5,910.5C 1319.09,909.232 1316.43,908.565 1313.5,908.5C 1303.42,906.125 1294.09,902.125 1285.5,896.5C 1285.03,895.094 1284.03,894.427 1282.5,894.5C 1275.45,890.297 1268.78,885.464 1262.5,880C 1253.9,871.903 1245.9,863.403 1238.5,854.5C 1237.92,852.251 1236.59,850.585 1234.5,849.5C 1233.92,847.251 1232.59,845.585 1230.5,844.5C 1218.43,827.371 1207.1,809.704 1196.5,791.5C 1196.57,789.973 1195.91,788.973 1194.5,788.5C 1189.5,779.825 1184.5,771.159 1179.5,762.5C 1179.57,760.973 1178.91,759.973 1177.5,759.5C 1167,740.496 1156,721.829 1144.5,703.5C 1144.25,701.326 1143.25,699.659 1141.5,698.5C 1140.89,696.566 1139.89,694.899 1138.5,693.5C 1138.57,691.973 1137.91,690.973 1136.5,690.5C 1132.19,682.215 1127.53,674.215 1122.5,666.5C 1122.57,664.973 1121.91,663.973 1120.5,663.5C 1103.59,634.68 1085.92,606.347 1067.5,578.5C 1076.2,564.432 1085.86,551.098 1096.5,538.5C 1098.59,537.415 1099.92,535.749 1100.5,533.5C 1102.59,532.415 1103.92,530.749 1104.5,528.5C 1107.82,523.848 1111.49,519.515 1115.5,515.5C 1117.59,514.415 1118.92,512.749 1119.5,510.5C 1132.52,495.137 1147.85,482.803 1165.5,473.5C 1167.97,473.245 1169.97,472.245 1171.5,470.5C 1177.9,467.896 1184.57,465.896 1191.5,464.5C 1208.37,462.533 1225.03,463.533 1241.5,467.5 Z"/></g>
<g><path style="opacity:1" fill="#4583e9" d="M 644.5,456.5 C 644.3,459.386 643.3,461.886 641.5,464C 642.624,464.249 643.624,464.749 644.5,465.5C 642.291,466.063 640.791,467.396 640,469.5C 639.667,467.833 639.333,466.167 639,464.5C 636.896,468.811 633.729,472.144 629.5,474.5C 633.753,467.91 638.753,461.91 644.5,456.5 Z"/></g>
<g><path style="opacity:1" fill="#7eabef" d="M 801.5,464.5 C 799.485,465.924 797.152,466.59 794.5,466.5C 796.515,465.076 798.848,464.41 801.5,464.5 Z"/></g>
<g><path style="opacity:1" fill="#6598e9" d="M 1399.5,469.5 C 1401.59,470.585 1402.92,472.251 1403.5,474.5C 1401.41,473.415 1400.08,471.749 1399.5,469.5 Z"/></g>
<g><path style="opacity:1" fill="#b5cdf5" d="M 1171.5,470.5 C 1169.97,472.245 1167.97,473.245 1165.5,473.5C 1167.03,471.755 1169.03,470.755 1171.5,470.5 Z"/></g>
<g><path style="opacity:1" fill="#76a4ef" d="M 1050.5,471.5 C 1049.92,473.749 1048.59,475.415 1046.5,476.5C 1047.08,474.251 1048.41,472.585 1050.5,471.5 Z"/></g>
<g><path style="opacity:1" fill="#6b9aeb" d="M 1268.5,478.5 C 1270.99,478.241 1272.66,479.241 1273.5,481.5C 1271.57,480.89 1269.9,479.89 1268.5,478.5 Z"/></g>
<g><path style="opacity:1" fill="#9bbef2" d="M 762.5,479.5 C 762.027,480.906 761.027,481.573 759.5,481.5C 759.973,480.094 760.973,479.427 762.5,479.5 Z"/></g>
<g><path style="opacity:1" fill="#6799ec" d="M 1003.5,495.5 C 1005.59,496.585 1006.92,498.251 1007.5,500.5C 1005.41,499.415 1004.08,497.749 1003.5,495.5 Z"/></g>
<g><path style="opacity:1" fill="#538aeb" d="M 1416.5,492.5 C 1420.61,496.951 1423.94,501.951 1426.5,507.5C 1424.39,507.321 1422.73,506.321 1421.5,504.5C 1421.83,503.833 1422.17,503.167 1422.5,502.5C 1421.12,500.309 1419.12,498.976 1416.5,498.5C 1417.44,498.511 1418.11,498.011 1418.5,497C 1417.59,495.594 1416.92,494.094 1416.5,492.5 Z"/></g>
<g><path style="opacity:1" fill="#6a9cec" d="M 1029.5,495.5 C 1028.92,497.749 1027.59,499.415 1025.5,500.5C 1026.08,498.251 1027.41,496.585 1029.5,495.5 Z"/></g>
<g><path style="opacity:1" fill="#7fa8ee" d="M 1299.5,500.5 C 1302.09,501.419 1304.09,503.086 1305.5,505.5C 1302.91,504.581 1300.91,502.914 1299.5,500.5 Z"/></g>
<g><path style="opacity:1" fill="#afcbf3" d="M 912.5,509.5 C 915.243,511.239 917.243,513.573 918.5,516.5C 915.757,514.761 913.757,512.427 912.5,509.5 Z"/></g>
<g><path style="opacity:1" fill="#b2cdf3" d="M 1119.5,510.5 C 1118.92,512.749 1117.59,514.415 1115.5,515.5C 1116.08,513.251 1117.41,511.585 1119.5,510.5 Z"/></g>
<g><path style="opacity:1" fill="#bdd1f4" d="M 599.5,519.5 C 598.416,522.004 597.083,524.337 595.5,526.5C 595.115,523.11 596.448,520.777 599.5,519.5 Z"/></g>
<g><path style="opacity:1" fill="#b7d0f5" d="M 1104.5,528.5 C 1103.92,530.749 1102.59,532.415 1100.5,533.5C 1101.08,531.251 1102.41,529.585 1104.5,528.5 Z"/></g>
<g><path style="opacity:1" fill="#bcd4f5" d="M 1325.5,528.5 C 1327.59,529.585 1328.92,531.251 1329.5,533.5C 1327.41,532.415 1326.08,530.749 1325.5,528.5 Z"/></g>
<g><path style="opacity:1" fill="#bbd2f4" d="M 931.5,532.5 C 933.914,533.911 935.581,535.911 936.5,538.5C 934.086,537.089 932.419,535.089 931.5,532.5 Z"/></g>
<g><path style="opacity:1" fill="#b9cff4" d="M 1100.5,533.5 C 1099.92,535.749 1098.59,537.415 1096.5,538.5C 1097.08,536.251 1098.41,534.585 1100.5,533.5 Z"/></g>
<g><path style="opacity:1" fill="#9dc0ee" d="M 1347.5,559.5 C 1348.91,559.973 1349.57,560.973 1349.5,562.5C 1348.09,562.027 1347.43,561.027 1347.5,559.5 Z"/></g>
<g><path style="opacity:1" fill="#6b99ea" d="M 1453.5,560.5 C 1455.07,562.102 1455.74,564.102 1455.5,566.5C 1453.72,565.01 1453.05,563.01 1453.5,560.5 Z"/></g>
<g><path style="opacity:1" fill="#93b9f0" d="M 1456.5,568.5 C 1458.25,570.033 1459.25,572.033 1459.5,574.5C 1457.75,572.967 1456.75,570.967 1456.5,568.5 Z"/></g>
<g><path style="opacity:1" fill="#88b1ef" d="M 575.5,569.5 C 575.88,571.698 575.213,573.365 573.5,574.5C 573.796,572.597 574.463,570.93 575.5,569.5 Z"/></g>
<g><path style="opacity:1" fill="#86b2ef" d="M 676.5,575.5 C 676.573,577.027 675.906,578.027 674.5,578.5C 674.427,576.973 675.094,575.973 676.5,575.5 Z"/></g>
<g><path style="opacity:1" fill="#6698e9" d="M 1461.5,581.5 C 1463.07,583.102 1463.74,585.102 1463.5,587.5C 1461.93,585.898 1461.26,583.898 1461.5,581.5 Z"/></g>
<g><path style="opacity:1" fill="#8ab2f0" d="M 672.5,583.5 C 672.573,585.027 671.906,586.027 670.5,586.5C 670.427,584.973 671.094,583.973 672.5,583.5 Z"/></g>
<g><path style="opacity:1" fill="#87aff0" d="M 1361.5,585.5 C 1362.91,585.973 1363.57,586.973 1363.5,588.5C 1362.09,588.027 1361.43,587.027 1361.5,585.5 Z"/></g>
<g><path style="opacity:1" fill="#5f92eb" d="M 571.5,580.5 C 570.709,583.417 570.709,586.25 571.5,589C 570.016,589.662 568.683,590.496 567.5,591.5C 568.462,587.605 569.796,583.939 571.5,580.5 Z"/></g>
<g><path style="opacity:1" fill="#a4c2f5" d="M 669.5,590.5 C 669.573,592.027 668.906,593.027 667.5,593.5C 667.427,591.973 668.094,590.973 669.5,590.5 Z"/></g>
<g><path style="opacity:1" fill="#a4c2f5" d="M 1363.5,590.5 C 1364.91,590.973 1365.57,591.973 1365.5,593.5C 1364.09,593.027 1363.43,592.027 1363.5,590.5 Z"/></g>
<g><path style="opacity:1" fill="#bcd3f6" d="M 665.5,598.5 C 665.834,601.491 664.834,603.824 662.5,605.5C 662.935,602.843 663.935,600.509 665.5,598.5 Z"/></g>
<g><path style="opacity:1" fill="#bdd4f5" d="M 1367.5,598.5 C 1369.07,600.509 1370.07,602.843 1370.5,605.5C 1368.17,603.824 1367.17,601.491 1367.5,598.5 Z"/></g>
<g><path style="opacity:1" fill="#c2d6f6" d="M 563.5,603.5 C 563.405,605.786 562.738,607.786 561.5,609.5C 561.054,606.99 561.72,604.99 563.5,603.5 Z"/></g>
<g><path style="opacity:1" fill="#6d9cec" d="M 949.5,603.5 C 949.408,605.848 948.408,607.514 946.5,608.5C 946.75,606.326 947.75,604.659 949.5,603.5 Z"/></g>
<g><path style="opacity:1" fill="#77a6ed" d="M 1473.5,617.5 C 1474.92,619.515 1475.59,621.848 1475.5,624.5C 1474.08,622.485 1473.41,620.152 1473.5,617.5 Z"/></g>
<g><path style="opacity:1" fill="#bed5f1" d="M 657.5,619.5 C 657.741,621.898 657.074,623.898 655.5,625.5C 655.259,623.102 655.926,621.102 657.5,619.5 Z"/></g>
<g><path style="opacity:1" fill="#78a8ef" d="M 1475.5,624.5 C 1476.92,626.515 1477.59,628.848 1477.5,631.5C 1476.08,629.485 1475.41,627.152 1475.5,624.5 Z"/></g>
<g><path style="opacity:1" fill="#6697ed" d="M 559.5,617.5 C 558.805,622.582 557.471,627.249 555.5,631.5C 555.92,626.471 557.254,621.805 559.5,617.5 Z"/></g>
<g><path style="opacity:1" fill="#a3c3f5" d="M 653.5,630.5 C 653.59,633.152 652.924,635.485 651.5,637.5C 651.41,634.848 652.076,632.515 653.5,630.5 Z"/></g>
<g><path style="opacity:1" fill="#b7d0f5" d="M 1379.5,631.5 C 1381.61,635.502 1382.94,639.835 1383.5,644.5C 1381.39,640.498 1380.06,636.165 1379.5,631.5 Z"/></g>
<g><path style="opacity:1" fill="#afc7f3" d="M 651.5,637.5 C 651.59,640.152 650.924,642.485 649.5,644.5C 649.41,641.848 650.076,639.515 651.5,637.5 Z"/></g>
<g><path style="opacity:1" fill="#79a5ef" d="M 1477.5,631.5 C 1479.89,636.455 1481.22,641.788 1481.5,647.5C 1479.75,642.385 1478.42,637.051 1477.5,631.5 Z"/></g>
<g><path style="opacity:1" fill="#9cbcf2" d="M 1383.5,644.5 C 1385.07,646.102 1385.74,648.102 1385.5,650.5C 1383.93,648.898 1383.26,646.898 1383.5,644.5 Z"/></g>
<g><path style="opacity:1" fill="#74a2e9" d="M 551.5,648.5 C 551.59,651.152 550.924,653.485 549.5,655.5C 549.41,652.848 550.076,650.515 551.5,648.5 Z"/></g>
<g><path style="opacity:1" fill="#d1dff8" d="M 648.5,648.5 C 648.419,653.476 647.419,658.143 645.5,662.5C 645.5,661.5 645.5,660.5 645.5,659.5C 645.682,655.511 646.682,651.844 648.5,648.5 Z"/></g>
<g><path style="opacity:1" fill="#87b0f2" d="M 915.5,658.5 C 915.573,660.027 914.906,661.027 913.5,661.5C 913.427,659.973 914.094,658.973 915.5,658.5 Z"/></g>
<g><path style="opacity:1" fill="#a7c5f4" d="M 1386.5,656.5 C 1388.28,659.505 1389.28,662.838 1389.5,666.5C 1387.72,663.495 1386.72,660.162 1386.5,656.5 Z"/></g>
<g><path style="opacity:1" fill="#92b6ef" d="M 645.5,659.5 C 645.5,660.5 645.5,661.5 645.5,662.5C 645.5,662.833 645.5,663.167 645.5,663.5C 644.833,664.5 644.167,665.5 643.5,666.5C 643.41,663.848 644.076,661.515 645.5,659.5 Z"/></g>
<g><path style="opacity:1" fill="#82acee" d="M 1120.5,663.5 C 1121.91,663.973 1122.57,664.973 1122.5,666.5C 1121.09,666.027 1120.43,665.027 1120.5,663.5 Z"/></g>
<g><path style="opacity:1" fill="#ceddf6" d="M 645.5,663.5 C 644.943,668.165 643.61,672.498 641.5,676.5C 641.959,673.123 642.626,669.789 643.5,666.5C 644.167,665.5 644.833,664.5 645.5,663.5 Z"/></g>
<g><path style="opacity:1" fill="#9dbdf0" d="M 1013.5,668.5 C 1013.57,670.027 1012.91,671.027 1011.5,671.5C 1011.43,669.973 1012.09,668.973 1013.5,668.5 Z"/></g>
<g><path style="opacity:1" fill="#8cb2ed" d="M 1023.5,675.5 C 1024.91,675.973 1025.57,676.973 1025.5,678.5C 1024.09,678.027 1023.43,677.027 1023.5,675.5 Z"/></g>
<g><path style="opacity:1" fill="#c2d6f5" d="M 1488.5,681.5 C 1489.12,681.611 1489.62,681.944 1490,682.5C 1490.9,688.135 1491.4,693.802 1491.5,699.5C 1490.31,693.665 1489.31,687.665 1488.5,681.5 Z"/></g>
<g><path style="opacity:1" fill="#7ca9ec" d="M 1136.5,690.5 C 1137.91,690.973 1138.57,691.973 1138.5,693.5C 1137.09,693.027 1136.43,692.027 1136.5,690.5 Z"/></g>
<g><path style="opacity:1" fill="#bfd6f8" d="M 1030.5,688.5 C 1032.25,690.033 1033.25,692.033 1033.5,694.5C 1031.75,692.967 1030.75,690.967 1030.5,688.5 Z"/></g>
<g><path style="opacity:1" fill="#6596e8" d="M 893.5,695.5 C 893.408,697.848 892.408,699.514 890.5,700.5C 890.75,698.326 891.75,696.659 893.5,695.5 Z"/></g>
<g><path style="opacity:1" fill="#6797e9" d="M 1141.5,698.5 C 1143.25,699.659 1144.25,701.326 1144.5,703.5C 1141.92,702.952 1140.92,701.285 1141.5,698.5 Z"/></g>
<g><path style="opacity:1" fill="#a5c3f1" d="M 1039.5,705.5 C 1040.91,705.973 1041.57,706.973 1041.5,708.5C 1040.09,708.027 1039.43,707.027 1039.5,705.5 Z"/></g>
<g><path style="opacity:1" fill="#7ba6ee" d="M 1395.5,701.5 C 1397.24,706.217 1397.9,711.217 1397.5,716.5C 1396.51,711.68 1395.85,706.68 1395.5,701.5 Z"/></g>
<g><path style="opacity:1" fill="#a4c3f3" d="M 1045.5,716.5 C 1046.91,716.973 1047.57,717.973 1047.5,719.5C 1046.09,719.027 1045.43,718.027 1045.5,716.5 Z"/></g>
<g><path style="opacity:1" fill="#5e94ec" d="M 1397.5,716.5 C 1398.12,716.611 1398.62,716.944 1399,717.5C 1400.17,727.467 1400.67,737.467 1400.5,747.5C 1399.53,745.393 1399.2,743.059 1399.5,740.5C 1399.66,733.938 1399,727.605 1397.5,721.5C 1397.5,719.833 1397.5,718.167 1397.5,716.5 Z"/></g>
<g><path style="opacity:1" fill="#5f94ea" d="M 541.5,704.5 C 541.265,711.354 540.598,718.021 539.5,724.5C 539.5,721.833 539.5,719.167 539.5,716.5C 539.539,712.267 540.205,708.267 541.5,704.5 Z"/></g>
<g><path style="opacity:1" fill="#709eee" d="M 878.5,720.5 C 878.408,722.848 877.408,724.514 875.5,725.5C 875.75,723.326 876.75,721.659 878.5,720.5 Z"/></g>
<g><path style="opacity:1" fill="#d2e2f8" d="M 987.5,716.5 C 986.751,721.009 984.751,724.676 981.5,727.5C 982.742,723.345 984.742,719.678 987.5,716.5 Z"/></g>
<g><path style="opacity:1" fill="#b7cff4" d="M 636.5,710.5 C 636.724,716.739 636.057,722.739 634.5,728.5C 634.5,726.833 634.5,725.167 634.5,723.5C 634.624,718.951 635.291,714.618 636.5,710.5 Z"/></g>
<g><path style="opacity:1" fill="#bcd4f4" d="M 1493.5,716.5 C 1495.27,725.602 1495.94,734.935 1495.5,744.5C 1494.57,735.336 1493.91,726.003 1493.5,716.5 Z"/></g>
<g><path style="opacity:1" fill="#709cec" d="M 875.5,725.5 C 875.408,727.848 874.408,729.514 872.5,730.5C 872.75,728.326 873.75,726.659 875.5,725.5 Z"/></g>
<g><path style="opacity:1" fill="#c1d6f4" d="M 1397.5,721.5 C 1399,727.605 1399.66,733.938 1399.5,740.5C 1398.25,734.37 1397.59,728.037 1397.5,721.5 Z"/></g>
<g><path style="opacity:1" fill="#b3cdf4" d="M 539.5,716.5 C 539.5,719.167 539.5,721.833 539.5,724.5C 538.948,731.314 538.281,737.981 537.5,744.5C 537.063,734.935 537.73,725.602 539.5,716.5 Z"/></g>
<g><path style="opacity:1" fill="#97bef0" d="M 1057.5,738.5 C 1058.91,738.973 1059.57,739.973 1059.5,741.5C 1058.09,741.027 1057.43,740.027 1057.5,738.5 Z"/></g>
<g><path style="opacity:1" fill="#7fabef" d="M 634.5,723.5 C 634.5,725.167 634.5,726.833 634.5,728.5C 634.612,734.726 633.946,740.726 632.5,746.5C 632.667,738.643 633.334,730.977 634.5,723.5 Z"/></g>
<g><path style="opacity:1" fill="#9dbff3" d="M 975.5,738.5 C 974.532,741.1 973.199,743.434 971.5,745.5C 971.725,742.454 973.058,740.121 975.5,738.5 Z"/></g>
<g><path style="opacity:1" fill="#9fbff4" d="M 1059.5,741.5 C 1061.25,743.033 1062.25,745.033 1062.5,747.5C 1060.75,745.967 1059.75,743.967 1059.5,741.5 Z"/></g>
<g><path style="opacity:1" fill="#85b1ec" d="M 862.5,747.5 C 862.573,749.027 861.906,750.027 860.5,750.5C 860.427,748.973 861.094,747.973 862.5,747.5 Z"/></g>
<g><path style="opacity:1" fill="#92b6f0" d="M 1062.5,747.5 C 1063.91,747.973 1064.57,748.973 1064.5,750.5C 1063.09,750.027 1062.43,749.027 1062.5,747.5 Z"/></g>
<g><path style="opacity:1" fill="#6f9dec" d="M 859.5,752.5 C 859.408,754.848 858.408,756.514 856.5,757.5C 856.75,755.326 857.75,753.659 859.5,752.5 Z"/></g>
<g><path style="opacity:1" fill="#81acf0" d="M 1177.5,759.5 C 1178.91,759.973 1179.57,760.973 1179.5,762.5C 1178.09,762.027 1177.43,761.027 1177.5,759.5 Z"/></g>
<g><path style="opacity:1" fill="#dae6f7" d="M 970.5,747.5 C 968.755,753.998 965.755,759.664 961.5,764.5C 963.74,758.35 966.74,752.684 970.5,747.5 Z"/></g>
<g><path style="opacity:1" fill="#5b8fec" d="M 856.5,757.5 C 854.907,761.703 853.574,766.036 852.5,770.5C 851.041,770.433 849.708,770.766 848.5,771.5C 850.664,766.5 853.331,761.833 856.5,757.5 Z"/></g>
<g><path style="opacity:1" fill="#4b89ec" d="M 631.5,764.5 C 631.429,777.513 631.762,790.513 632.5,803.5C 632.5,806.167 632.5,808.833 632.5,811.5C 630.45,795.861 630.117,780.195 631.5,764.5 Z"/></g>
<g><path style="opacity:1" fill="#528ded" d="M 1400.5,748.5 C 1401.88,758.466 1402.55,768.633 1402.5,779C 1402.67,787.388 1402.01,795.555 1400.5,803.5C 1401.74,785.169 1401.74,766.836 1400.5,748.5 Z"/></g>
<g><path style="opacity:1" fill="#87b0ed" d="M 956.5,772.5 C 956.573,774.027 955.906,775.027 954.5,775.5C 954.427,773.973 955.094,772.973 956.5,772.5 Z"/></g>
<g><path style="opacity:1" fill="#a9c7f2" d="M 537.5,745.5 C 537.37,765.511 537.703,785.511 538.5,805.5C 537.017,793.535 536.35,781.368 536.5,769C 536.5,760.993 536.834,753.159 537.5,745.5 Z"/></g>
<g><path style="opacity:1" fill="#aec9f2" d="M 1076.5,772.5 C 1078.2,774.566 1079.53,776.9 1080.5,779.5C 1078.06,777.879 1076.72,775.546 1076.5,772.5 Z"/></g>
<g><path style="opacity:1" fill="#6a98ea" d="M 844.5,778.5 C 844.682,780.591 844.348,782.591 843.5,784.5C 842.675,785.386 841.675,785.719 840.5,785.5C 840.715,787.179 840.048,788.179 838.5,788.5C 840,784.827 842,781.494 844.5,778.5 Z"/></g>
<g><path style="opacity:1" fill="#d2e1f7" d="M 951.5,781.5 C 951.082,785.349 949.415,788.349 946.5,790.5C 947.41,787.008 949.076,784.008 951.5,781.5 Z"/></g>
<g><path style="opacity:1" fill="#93b8f2" d="M 838.5,788.5 C 838.573,790.027 837.906,791.027 836.5,791.5C 836.427,789.973 837.094,788.973 838.5,788.5 Z"/></g>
<g><path style="opacity:1" fill="#93b8f1" d="M 1194.5,788.5 C 1195.91,788.973 1196.57,789.973 1196.5,791.5C 1195.09,791.027 1194.43,790.027 1194.5,788.5 Z"/></g>
<g><path style="opacity:1" fill="#578de9" d="M 834.5,795.5 C 835.016,799.697 833.35,802.364 829.5,803.5C 830.68,800.46 832.347,797.794 834.5,795.5 Z"/></g>
<g><path style="opacity:1" fill="#a0c1ef" d="M 937.5,805.5 C 937.573,807.027 936.906,808.027 935.5,808.5C 935.427,806.973 936.094,805.973 937.5,805.5 Z"/></g>
<g><path style="opacity:1" fill="#a4c4f2" d="M 1095.5,805.5 C 1096.91,805.973 1097.57,806.973 1097.5,808.5C 1096.09,808.027 1095.43,807.027 1095.5,805.5 Z"/></g>
<g><path style="opacity:1" fill="#91b8f2" d="M 632.5,803.5 C 633.801,807.943 634.468,812.609 634.5,817.5C 633.833,815.5 633.167,813.5 632.5,811.5C 632.5,808.833 632.5,806.167 632.5,803.5 Z"/></g>
<g><path style="opacity:1" fill="#aac6f5" d="M 1103.5,818.5 C 1104.91,818.973 1105.57,819.973 1105.5,821.5C 1104.09,821.027 1103.43,820.027 1103.5,818.5 Z"/></g>
<g><path style="opacity:1" fill="#7ba8f0" d="M 1399.5,811.5 C 1399.9,816.783 1399.24,821.783 1397.5,826.5C 1397.85,821.32 1398.51,816.32 1399.5,811.5 Z"/></g>
<g><path style="opacity:1" fill="#5088eb" d="M 823.5,813.5 C 822.363,816.229 821.03,818.896 819.5,821.5C 820.025,822.192 820.692,822.692 821.5,823C 820.167,824 820.167,825 821.5,826C 820.451,826.492 819.451,826.326 818.5,825.5C 817.833,827.167 817.167,828.833 816.5,830.5C 815.135,829.193 813.802,829.193 812.5,830.5C 815.323,825.523 818.157,820.523 821,815.5C 821.708,814.619 822.542,813.953 823.5,813.5 Z"/></g>
<g><path style="opacity:1" fill="#bfd4f5" d="M 539.5,820.5 C 541.721,833.281 543.388,846.281 544.5,859.5C 543.113,857.123 542.279,854.457 542,851.5C 540.648,841.203 539.814,830.87 539.5,820.5 Z"/></g>
<g><path style="opacity:1" fill="#709eed" d="M 634.5,822.5 C 636.678,828.196 638.011,834.196 638.5,840.5C 635.619,834.964 634.286,828.964 634.5,822.5 Z"/></g>
<g><path style="opacity:1" fill="#b1cbf3" d="M 1495.5,745.5 C 1497.55,780.014 1495.89,814.348 1490.5,848.5C 1490.86,836.425 1492.02,824.425 1494,812.5C 1495.2,790.183 1495.7,767.849 1495.5,745.5 Z"/></g>
<g><path style="opacity:1" fill="#6395ec" d="M 1397.5,826.5 C 1397.58,830.202 1397.25,833.868 1396.5,837.5C 1396.36,839.03 1395.69,840.03 1394.5,840.5C 1395.22,835.651 1396.22,830.985 1397.5,826.5 Z"/></g>
<g><path style="opacity:1" fill="#7aa7ef" d="M 638.5,840.5 C 639.768,842.905 640.435,845.572 640.5,848.5C 638.96,846.162 638.294,843.495 638.5,840.5 Z"/></g>
<g><path style="opacity:1" fill="#74a4ee" d="M 1394.5,841.5 C 1394.59,844.152 1393.92,846.485 1392.5,848.5C 1392.41,845.848 1393.08,843.515 1394.5,841.5 Z"/></g>
<g><path style="opacity:1" fill="#5b8eea" d="M 804.5,841.5 C 803.637,842.94 803.637,844.274 804.5,845.5C 801.876,846.795 799.543,848.462 797.5,850.5C 799.458,847.208 801.791,844.208 804.5,841.5 Z"/></g>
<g><path style="opacity:1" fill="#6698ea" d="M 1230.5,844.5 C 1232.59,845.585 1233.92,847.251 1234.5,849.5C 1232.41,848.415 1231.08,846.749 1230.5,844.5 Z"/></g>
<g><path style="opacity:1" fill="#6c9dea" d="M 1234.5,849.5 C 1236.59,850.585 1237.92,852.251 1238.5,854.5C 1236.41,853.415 1235.08,851.749 1234.5,849.5 Z"/></g>
<g><path style="opacity:1" fill="#bed3f4" d="M 643.5,857.5 C 646.379,860.519 648.045,864.186 648.5,868.5C 646.066,865.291 644.399,861.624 643.5,857.5 Z"/></g>
<g><path style="opacity:1" fill="#73a0ed" d="M 785.5,864.5 C 784.243,867.427 782.243,869.761 779.5,871.5C 780.757,868.573 782.757,866.239 785.5,864.5 Z"/></g>
<g><path style="opacity:1" fill="#93b9f1" d="M 1386.5,865.5 C 1386.57,867.027 1385.91,868.027 1384.5,868.5C 1384.43,866.973 1385.09,865.973 1386.5,865.5 Z"/></g>
<g><path style="opacity:1" fill="#bcd2f3" d="M 884.5,883.5 C 883.92,885.749 882.587,887.415 880.5,888.5C 881.08,886.251 882.413,884.585 884.5,883.5 Z"/></g>
<g><path style="opacity:1" fill="#a6c6f4" d="M 1282.5,894.5 C 1284.03,894.427 1285.03,895.094 1285.5,896.5C 1283.97,896.573 1282.97,895.906 1282.5,894.5 Z"/></g>
<g><path style="opacity:1" fill="#bcd3f4" d="M 878.5,890.5 C 876.978,894.564 874.311,897.564 870.5,899.5C 872.942,896.271 875.608,893.271 878.5,890.5 Z"/></g>
<g><path style="opacity:1" fill="#6a9cee" d="M 727.5,906.5 C 725.485,907.924 723.152,908.59 720.5,908.5C 722.515,907.076 724.848,906.41 727.5,906.5 Z"/></g>
<g><path style="opacity:1" fill="#b0cbf6" d="M 864.5,906.5 C 863.92,908.749 862.587,910.415 860.5,911.5C 861.08,909.251 862.413,907.585 864.5,906.5 Z"/></g>
<g><path style="opacity:1" fill="#7aa8ee" d="M 1313.5,908.5 C 1316.43,908.565 1319.09,909.232 1321.5,910.5C 1318.5,910.706 1315.84,910.04 1313.5,908.5 Z"/></g>
<g><path style="opacity:1" fill="#77a4ed" d="M 1352.5,905.5 C 1351.94,906.79 1350.94,907.623 1349.5,908C 1345.59,909.283 1341.59,910.116 1337.5,910.5C 1342.44,908.966 1347.44,907.299 1352.5,905.5 Z"/></g>
<g><path style="opacity:1" fill="#9bbcf2" d="M 555.5,906.5 C 557.4,909.518 558.733,912.851 559.5,916.5C 557.103,913.691 555.77,910.358 555.5,906.5 Z"/></g>
<g><path style="opacity:1" fill="#9cbdf2" d="M 1477.5,906.5 C 1477.23,910.358 1475.9,913.691 1473.5,916.5C 1474.27,912.851 1475.6,909.518 1477.5,906.5 Z"/></g>
<g><path style="opacity:1" fill="#a7c3f3" d="M 1473.5,917.5 C 1473.88,919.698 1473.21,921.365 1471.5,922.5C 1471.8,920.597 1472.46,918.93 1473.5,917.5 Z"/></g>
<g><path style="opacity:1" fill="#cdddf8" d="M 559.5,917.5 C 561.009,920.678 562.342,924.011 563.5,927.5C 562.504,927.586 561.671,927.252 561,926.5C 560.304,923.522 559.804,920.522 559.5,917.5 Z"/></g>
<g><path style="opacity:1" fill="#cddef6" d="M 844.5,927.5 C 842.5,931.5 839.5,934.5 835.5,936.5C 838.167,933.167 841.167,930.167 844.5,927.5 Z"/></g>
<g><path style="opacity:1" fill="#a0c1f4" d="M 569.5,941.5 C 570.906,941.973 571.573,942.973 571.5,944.5C 570.094,944.027 569.427,943.027 569.5,941.5 Z"/></g>
<g><path style="opacity:1" fill="#c3d6f6" d="M 573.5,947.5 C 574.492,949.456 575.492,951.456 576.5,953.5C 574.025,952.313 573.025,950.313 573.5,947.5 Z"/></g>
<g><path style="opacity:1" fill="#aac6f1" d="M 590.5,971.5 C 593.167,973.5 595.5,975.833 597.5,978.5C 594.167,977.167 591.833,974.833 590.5,971.5 Z"/></g>
<g><path style="opacity:1" fill="#b1cbf1" d="M 1442.5,971.5 C 1440.17,975.833 1436.83,979.167 1432.5,981.5C 1435.5,977.833 1438.83,974.5 1442.5,971.5 Z"/></g>
<g><path style="opacity:1" fill="#a7c5f0" d="M 771.5,985.5 C 771.027,986.906 770.027,987.573 768.5,987.5C 768.973,986.094 769.973,985.427 771.5,985.5 Z"/></g>
<g><path style="opacity:1" fill="#87aef1" d="M 1263.5,986.5 C 1265.03,986.427 1266.03,987.094 1266.5,988.5C 1264.97,988.573 1263.97,987.906 1263.5,986.5 Z"/></g>
<g><path style="opacity:1" fill="#b7d0f3" d="M 1427.5,986.5 C 1426.42,988.587 1424.75,989.92 1422.5,990.5C 1423.58,988.413 1425.25,987.08 1427.5,986.5 Z"/></g>
<g><path style="opacity:1" fill="#84aeee" d="M 628.5,1001.5 C 630.027,1001.43 631.027,1002.09 631.5,1003.5C 629.973,1003.57 628.973,1002.91 628.5,1001.5 Z"/></g>
<g><path style="opacity:1" fill="#b5cff5" d="M 1292.5,1001.5 C 1294.97,1001.75 1296.97,1002.75 1298.5,1004.5C 1296.03,1004.25 1294.03,1003.25 1292.5,1001.5 Z"/></g>
<g><path style="opacity:1" fill="#80abed" d="M 635.5,1005.5 C 638.491,1005.17 640.824,1006.17 642.5,1008.5C 639.843,1008.07 637.509,1007.07 635.5,1005.5 Z"/></g>
<g><path style="opacity:1" fill="#acc7f3" d="M 742.5,1000.5 C 741.942,1001.79 740.942,1002.62 739.5,1003C 734.554,1004.82 729.554,1006.32 724.5,1007.5C 730.267,1004.8 736.267,1002.46 742.5,1000.5 Z"/></g>
<g><path style="opacity:1" fill="#78a6ed" d="M 1303.5,1005.5 C 1306.86,1005.69 1309.86,1006.69 1312.5,1008.5C 1309.08,1008.47 1306.08,1007.47 1303.5,1005.5 Z"/></g>
<g><path style="opacity:1" fill="#9dbff1" d="M 1396.5,1005.5 C 1394.97,1007.25 1392.97,1008.25 1390.5,1008.5C 1392.03,1006.75 1394.03,1005.75 1396.5,1005.5 Z"/></g>
<g><path style="opacity:1" fill="#5a90ea" d="M 1320.5,1010.5 C 1325.64,1009.91 1330.31,1010.91 1334.5,1013.5C 1329.56,1013.25 1324.89,1012.25 1320.5,1010.5 Z"/></g>
<g><path style="opacity:1" fill="#bad0f6" d="M 1387.5,1009.5 C 1385.49,1010.92 1383.15,1011.59 1380.5,1011.5C 1382.51,1010.08 1384.85,1009.41 1387.5,1009.5 Z"/></g>
<g><path style="opacity:1" fill="#8ab0ee" d="M 654.5,1011.5 C 657.152,1011.41 659.485,1012.08 661.5,1013.5C 658.848,1013.59 656.515,1012.92 654.5,1011.5 Z"/></g>
<g><path style="opacity:1" fill="#b1ccf4" d="M 703.5,1012.5 C 702.737,1013.27 701.737,1013.77 700.5,1014C 697.183,1014.5 693.85,1014.67 690.5,1014.5C 694.639,1013.44 698.972,1012.77 703.5,1012.5 Z"/></g>
<g><path style="opacity:1" fill="#b2b5b8" d="M 371.5,1176.5 C 371.167,1176.5 370.833,1176.5 370.5,1176.5C 345.339,1175.5 320.005,1175.17 294.5,1175.5C 294.5,1320.83 294.5,1466.17 294.5,1611.5C 294.5,1611.83 294.5,1612.17 294.5,1612.5C 293.5,1467 293.167,1321.33 293.5,1175.5C 306.329,1174.83 319.329,1174.5 332.5,1174.5C 345.851,1174.5 358.851,1175.17 371.5,1176.5 Z"/></g>
<g><path style="opacity:1" fill="#696d72" d="M 682.5,1175.5 C 708.167,1175.5 733.833,1175.5 759.5,1175.5C 759.833,1321.33 759.5,1467 758.5,1612.5C 758.5,1612.17 758.5,1611.83 758.5,1611.5C 758.5,1466.5 758.5,1321.5 758.5,1176.5C 732.759,1176.18 707.092,1176.51 681.5,1177.5C 681.328,1176.51 681.662,1175.84 682.5,1175.5 Z"/></g>
<g><path style="opacity:1" fill="#192026" d="M 370.5,1176.5 C 370.833,1176.5 371.167,1176.5 371.5,1176.5C 376.417,1184.66 381.083,1193 385.5,1201.5C 385.427,1203.03 386.094,1204.03 387.5,1204.5C 392.226,1211.91 396.559,1219.57 400.5,1227.5C 401.535,1229.2 401.535,1230.87 400.5,1232.5C 402.319,1233.32 403.986,1234.32 405.5,1235.5C 406.338,1235.84 406.672,1236.51 406.5,1237.5C 406.427,1239.03 407.094,1240.03 408.5,1240.5C 409.674,1241.51 410.34,1242.85 410.5,1244.5C 410.427,1246.03 411.094,1247.03 412.5,1247.5C 415.084,1251.67 417.417,1256 419.5,1260.5C 419.703,1262.39 419.037,1263.89 417.5,1265C 418.833,1265 420.167,1265 421.5,1265C 422.833,1266.84 422.666,1267.34 421,1266.5C 421.835,1269.84 424.001,1272.18 427.5,1273.5C 440.335,1294.5 452.668,1315.83 464.5,1337.5C 464.427,1339.03 465.094,1340.03 466.5,1340.5C 476.589,1356.34 485.922,1372.67 494.5,1389.5C 494.427,1391.03 495.094,1392.03 496.5,1392.5C 497.674,1393.51 498.34,1394.85 498.5,1396.5C 498.427,1398.03 499.094,1399.03 500.5,1399.5C 509.144,1414.11 517.811,1428.78 526.5,1443.5C 530.608,1436.27 534.941,1429.27 539.5,1422.5C 541.408,1421.51 542.408,1419.85 542.5,1417.5C 544.807,1412.55 547.474,1407.88 550.5,1403.5C 552.408,1402.51 553.408,1400.85 553.5,1398.5C 555.931,1396.95 557.264,1394.62 557.5,1391.5C 557.328,1390.51 557.662,1389.84 558.5,1389.5C 559.906,1389.03 560.573,1388.03 560.5,1386.5C 564.251,1379.33 568.251,1372.33 572.5,1365.5C 574.931,1363.95 576.264,1361.62 576.5,1358.5C 582.251,1347.99 588.251,1337.66 594.5,1327.5C 596.408,1326.51 597.408,1324.85 597.5,1322.5C 599.775,1317.57 602.441,1312.9 605.5,1308.5C 609.337,1305.51 611.67,1301.51 612.5,1296.5C 614.408,1295.51 615.408,1293.85 615.5,1291.5C 618.974,1289.25 620.974,1285.91 621.5,1281.5C 623.997,1275.83 626.997,1270.5 630.5,1265.5C 632.408,1264.51 633.408,1262.85 633.5,1260.5C 635,1256.83 637,1253.49 639.5,1250.5C 640.117,1250.61 640.617,1250.94 641,1251.5C 641.219,1250.06 641.719,1248.73 642.5,1247.5C 645.357,1246.8 647.857,1245.47 650,1243.5C 650.687,1241.08 650.187,1238.91 648.5,1237C 650.288,1234.53 651.622,1231.36 652.5,1227.5C 654.408,1226.51 655.408,1224.85 655.5,1222.5C 656.82,1221.06 658.486,1220.39 660.5,1220.5C 661.146,1216.2 662.646,1212.2 665,1208.5C 665.317,1210.3 665.984,1210.63 667,1209.5C 668.049,1205.87 668.882,1202.2 669.5,1198.5C 669.328,1197.51 669.662,1196.84 670.5,1196.5C 672.408,1195.51 673.408,1193.85 673.5,1191.5C 675.775,1186.57 678.441,1181.9 681.5,1177.5C 707.092,1176.51 732.759,1176.18 758.5,1176.5C 758.5,1321.5 758.5,1466.5 758.5,1611.5C 734.5,1611.5 710.5,1611.5 686.5,1611.5C 686.5,1599.17 686.5,1586.83 686.5,1574.5C 687.535,1478.5 687.535,1382.5 686.5,1286.5C 685.081,1287 684.415,1288 684.5,1289.5C 683.326,1290.51 682.66,1291.85 682.5,1293.5C 678.749,1297.99 675.749,1302.99 673.5,1308.5C 672.094,1308.97 671.427,1309.97 671.5,1311.5C 666.332,1319.16 661.665,1327.16 657.5,1335.5C 656.094,1335.97 655.427,1336.97 655.5,1338.5C 653.75,1339.66 652.75,1341.33 652.5,1343.5C 650.412,1345.34 649.079,1347.67 648.5,1350.5C 642.918,1359.33 637.585,1368.33 632.5,1377.5C 630.75,1378.66 629.75,1380.33 629.5,1382.5C 627.75,1383.66 626.75,1385.33 626.5,1387.5C 622.918,1392.99 619.585,1398.66 616.5,1404.5C 615.094,1404.97 614.427,1405.97 614.5,1407.5C 608.584,1416.99 602.918,1426.66 597.5,1436.5C 595.75,1437.66 594.75,1439.33 594.5,1441.5C 592.75,1442.66 591.75,1444.33 591.5,1446.5C 586.666,1453.5 582.333,1460.83 578.5,1468.5C 576.75,1469.66 575.75,1471.33 575.5,1473.5C 568.666,1483.83 562.333,1494.5 556.5,1505.5C 554.896,1506.29 554.229,1507.62 554.5,1509.5C 535.833,1509.5 517.167,1509.5 498.5,1509.5C 493.022,1498.54 487.022,1487.88 480.5,1477.5C 480.573,1475.97 479.906,1474.97 478.5,1474.5C 478.573,1472.97 477.906,1471.97 476.5,1471.5C 474.336,1466.5 471.669,1461.83 468.5,1457.5C 468.573,1455.97 467.906,1454.97 466.5,1454.5C 466.34,1452.85 465.674,1451.51 464.5,1450.5C 464.573,1448.97 463.906,1447.97 462.5,1447.5C 462.573,1445.97 461.906,1444.97 460.5,1444.5C 460.672,1443.51 460.338,1442.84 459.5,1442.5C 459.573,1440.97 458.906,1439.97 457.5,1439.5C 455.336,1434.5 452.669,1429.83 449.5,1425.5C 449.573,1423.97 448.906,1422.97 447.5,1422.5C 447.34,1420.85 446.674,1419.51 445.5,1418.5C 445.573,1416.97 444.906,1415.97 443.5,1415.5C 443.672,1414.51 443.338,1413.84 442.5,1413.5C 442.573,1411.97 441.906,1410.97 440.5,1410.5C 437.404,1404.63 434.071,1398.97 430.5,1393.5C 430.573,1391.97 429.906,1390.97 428.5,1390.5C 428.34,1388.85 427.674,1387.51 426.5,1386.5C 426.573,1384.97 425.906,1383.97 424.5,1383.5C 424.672,1382.51 424.338,1381.84 423.5,1381.5C 423.573,1379.97 422.906,1378.97 421.5,1378.5C 418.083,1372 414.416,1365.66 410.5,1359.5C 410.573,1357.97 409.906,1356.97 408.5,1356.5C 408.34,1354.85 407.674,1353.51 406.5,1352.5C 406.573,1350.97 405.906,1349.97 404.5,1349.5C 404.573,1347.97 403.906,1346.97 402.5,1346.5C 399.083,1340 395.416,1333.66 391.5,1327.5C 390.89,1325.57 389.89,1323.9 388.5,1322.5C 387.89,1320.57 386.89,1318.9 385.5,1317.5C 385.573,1315.97 384.906,1314.97 383.5,1314.5C 379.197,1306.22 374.53,1298.22 369.5,1290.5C 369.443,1289.39 369.11,1288.39 368.5,1287.5C 368.189,1286.52 367.522,1285.86 366.5,1285.5C 365.172,1305.33 365.172,1325 366.5,1344.5C 366.5,1389.17 366.5,1433.83 366.5,1478.5C 366.5,1522.83 366.5,1567.17 366.5,1611.5C 342.833,1611.5 319.167,1611.5 295.5,1611.5C 295.5,1466.5 295.5,1321.5 295.5,1176.5C 320.5,1176.5 345.5,1176.5 370.5,1176.5 Z"/></g>
<g><path style="opacity:1" fill="#dddedf" d="M 682.5,1175.5 C 708.328,1174.5 734.328,1174.17 760.5,1174.5C 760.5,1320.83 760.5,1467.17 760.5,1613.5C 735.328,1613.83 710.328,1613.5 685.5,1612.5C 709.833,1612.5 734.167,1612.5 758.5,1612.5C 759.5,1467 759.833,1321.33 759.5,1175.5C 733.833,1175.5 708.167,1175.5 682.5,1175.5 Z"/></g>
<g><path style="opacity:1" fill="#edefee" d="M 293.5,1175.5 C 293.167,1321.33 293.5,1467 294.5,1612.5C 318.833,1612.5 343.167,1612.5 367.5,1612.5C 342.672,1613.5 317.672,1613.83 292.5,1613.5C 292.167,1467.33 292.5,1321.33 293.5,1175.5 Z"/></g>
<g><path style="opacity:1" fill="#3b4147" d="M 370.5,1176.5 C 345.5,1176.5 320.5,1176.5 295.5,1176.5C 295.5,1321.5 295.5,1466.5 295.5,1611.5C 295.167,1611.5 294.833,1611.5 294.5,1611.5C 294.5,1466.17 294.5,1320.83 294.5,1175.5C 320.005,1175.17 345.339,1175.5 370.5,1176.5 Z"/></g>
<g><path style="opacity:1" fill="#565b60" d="M 673.5,1191.5 C 673.408,1193.85 672.408,1195.51 670.5,1196.5C 670.75,1194.33 671.75,1192.66 673.5,1191.5 Z"/></g>
<g><path style="opacity:1" fill="#192026" d="M 1218.5,1196.5 C 1240.83,1196.5 1263.17,1196.5 1285.5,1196.5C 1285.5,1226.83 1285.5,1257.17 1285.5,1287.5C 1316.5,1287.5 1347.5,1287.5 1378.5,1287.5C 1378.5,1306.17 1378.5,1324.83 1378.5,1343.5C 1347.33,1343.17 1316.33,1343.5 1285.5,1344.5C 1285.17,1400.34 1285.5,1456 1286.5,1511.5C 1287.36,1517.93 1288.69,1524.26 1290.5,1530.5C 1290.43,1532.03 1291.09,1533.03 1292.5,1533.5C 1294.73,1538.07 1297.73,1542.07 1301.5,1545.5C 1302.58,1547.59 1304.25,1548.92 1306.5,1549.5C 1307.26,1551.26 1308.6,1552.26 1310.5,1552.5C 1314.9,1554.6 1319.57,1556.1 1324.5,1557C 1337.83,1557.5 1351.16,1557.67 1364.5,1557.5C 1369.83,1557.17 1375.17,1556.83 1380.5,1556.5C 1380.5,1572.5 1380.5,1588.5 1380.5,1604.5C 1376.5,1606.17 1372.5,1607.83 1368.5,1609.5C 1368.17,1609.5 1367.83,1609.5 1367.5,1609.5C 1364.85,1609.41 1362.51,1610.08 1360.5,1611.5C 1342.18,1612.55 1323.85,1612.72 1305.5,1612C 1303.94,1611.79 1302.61,1611.29 1301.5,1610.5C 1294.58,1608.95 1287.58,1607.28 1280.5,1605.5C 1279.83,1605.5 1279.17,1605.5 1278.5,1605.5C 1278.03,1604.09 1277.03,1603.43 1275.5,1603.5C 1254.53,1596.19 1239.19,1582.53 1229.5,1562.5C 1229.25,1560.03 1228.25,1558.03 1226.5,1556.5C 1224.83,1551.17 1223.17,1545.83 1221.5,1540.5C 1219.85,1534.3 1218.85,1527.97 1218.5,1521.5C 1218.5,1462.5 1218.5,1403.5 1218.5,1344.5C 1197.34,1343.5 1176.01,1343.17 1154.5,1343.5C 1154.5,1324.83 1154.5,1306.17 1154.5,1287.5C 1176.01,1287.83 1197.34,1287.5 1218.5,1286.5C 1218.5,1256.5 1218.5,1226.5 1218.5,1196.5 Z"/></g>
<g><path style="opacity:1" fill="#6d7175" d="M 385.5,1201.5 C 386.906,1201.97 387.573,1202.97 387.5,1204.5C 386.094,1204.03 385.427,1203.03 385.5,1201.5 Z"/></g>
<g><path style="opacity:1" fill="#30363b" d="M 669.5,1198.5 C 668.882,1202.2 668.049,1205.87 667,1209.5C 665.984,1210.63 665.317,1210.3 665,1208.5C 662.646,1212.2 661.146,1216.2 660.5,1220.5C 658.486,1220.39 656.82,1221.06 655.5,1222.5C 659.665,1214.16 664.332,1206.16 669.5,1198.5 Z"/></g>
<g><path style="opacity:1" fill="#575b62" d="M 655.5,1222.5 C 655.408,1224.85 654.408,1226.51 652.5,1227.5C 652.75,1225.33 653.75,1223.66 655.5,1222.5 Z"/></g>
<g><path style="opacity:1" fill="#43494e" d="M 400.5,1227.5 C 402.664,1229.82 404.331,1232.49 405.5,1235.5C 403.986,1234.32 402.319,1233.32 400.5,1232.5C 401.535,1230.87 401.535,1229.2 400.5,1227.5 Z"/></g>
<g><path style="opacity:1" fill="#2b3137" d="M 652.5,1227.5 C 651.622,1231.36 650.288,1234.53 648.5,1237C 650.187,1238.91 650.687,1241.08 650,1243.5C 647.857,1245.47 645.357,1246.8 642.5,1247.5C 641.719,1248.73 641.219,1250.06 641,1251.5C 640.617,1250.94 640.117,1250.61 639.5,1250.5C 643.077,1242.34 647.411,1234.67 652.5,1227.5 Z"/></g>
<g><path style="opacity:1" fill="#797c80" d="M 406.5,1237.5 C 407.906,1237.97 408.573,1238.97 408.5,1240.5C 407.094,1240.03 406.427,1239.03 406.5,1237.5 Z"/></g>
<g><path style="opacity:1" fill="#6e7276" d="M 410.5,1244.5 C 411.906,1244.97 412.573,1245.97 412.5,1247.5C 411.094,1247.03 410.427,1246.03 410.5,1244.5 Z"/></g>
<g><path style="opacity:1" fill="#55595f" d="M 633.5,1260.5 C 633.408,1262.85 632.408,1264.51 630.5,1265.5C 630.75,1263.33 631.75,1261.66 633.5,1260.5 Z"/></g>
<g><path style="opacity:1" fill="#343a40" d="M 419.5,1260.5 C 422.916,1264.32 425.582,1268.66 427.5,1273.5C 424.001,1272.18 421.835,1269.84 421,1266.5C 422.666,1267.34 422.833,1266.84 421.5,1265C 420.167,1265 418.833,1265 417.5,1265C 419.037,1263.89 419.703,1262.39 419.5,1260.5 Z"/></g>
<g><path style="opacity:1" fill="#192026" d="M 1025.5,1281.5 C 1027.03,1283.25 1029.03,1284.25 1031.5,1284.5C 1043.92,1289.54 1055.59,1295.88 1066.5,1303.5C 1067.91,1305.91 1069.91,1307.58 1072.5,1308.5C 1075.5,1311.83 1078.5,1315.17 1081.5,1318.5C 1082.08,1320.75 1083.41,1322.42 1085.5,1323.5C 1088.55,1326.58 1091.39,1329.91 1094,1333.5C 1095.19,1335.89 1096.36,1338.22 1097.5,1340.5C 1097.43,1342.03 1098.09,1343.03 1099.5,1343.5C 1099.43,1345.03 1100.09,1346.03 1101.5,1346.5C 1103.16,1349.33 1104.49,1352.33 1105.5,1355.5C 1105.17,1358.49 1106.17,1360.82 1108.5,1362.5C 1111.11,1369.67 1113.11,1377 1114.5,1384.5C 1114.41,1387.15 1115.08,1389.49 1116.5,1391.5C 1116.5,1391.83 1116.5,1392.17 1116.5,1392.5C 1117.31,1398.66 1118.31,1404.66 1119.5,1410.5C 1119.5,1411.17 1119.5,1411.83 1119.5,1412.5C 1119.69,1427.52 1119.36,1442.52 1118.5,1457.5C 1117.6,1458.21 1117.26,1459.21 1117.5,1460.5C 1038.5,1460.5 959.5,1460.5 880.5,1460.5C 880.335,1463.52 880.502,1466.52 881,1469.5C 881.278,1470.42 881.778,1471.08 882.5,1471.5C 884.26,1479.02 886.593,1486.35 889.5,1493.5C 889.427,1495.03 890.094,1496.03 891.5,1496.5C 892.441,1498.05 893.107,1499.72 893.5,1501.5C 893.427,1503.03 894.094,1504.03 895.5,1504.5C 908.936,1525.6 927.602,1539.93 951.5,1547.5C 954.505,1549.28 957.838,1550.28 961.5,1550.5C 961.833,1550.5 962.167,1550.5 962.5,1550.5C 964.515,1551.92 966.848,1552.59 969.5,1552.5C 970.5,1552.5 971.5,1552.5 972.5,1552.5C 988.236,1555.4 1003.9,1555.07 1019.5,1551.5C 1020.5,1551.5 1021.5,1551.5 1022.5,1551.5C 1027.12,1551.24 1031.46,1550.24 1035.5,1548.5C 1052.2,1543.15 1068.2,1536.15 1083.5,1527.5C 1084.5,1527.59 1085.33,1527.25 1086,1526.5C 1086.66,1528.32 1087.83,1529.66 1089.5,1530.5C 1093.56,1534.28 1096.89,1538.62 1099.5,1543.5C 1100.42,1546.09 1102.09,1548.09 1104.5,1549.5C 1109.32,1555.16 1113.98,1560.99 1118.5,1567C 1108.97,1573.93 1098.97,1580.1 1088.5,1585.5C 1085.52,1586.33 1082.85,1587.66 1080.5,1589.5C 1075.12,1591.84 1069.79,1594.18 1064.5,1596.5C 1055.61,1599.13 1046.94,1602.13 1038.5,1605.5C 1035.27,1605.68 1032.27,1606.34 1029.5,1607.5C 1026.85,1607.41 1024.51,1608.08 1022.5,1609.5C 1021.83,1609.5 1021.17,1609.5 1020.5,1609.5C 1014.31,1610.14 1008.31,1611.14 1002.5,1612.5C 980.434,1613.85 958.768,1611.85 937.5,1606.5C 935.485,1605.08 933.152,1604.41 930.5,1604.5C 915.634,1600.77 901.634,1595.11 888.5,1587.5C 888.027,1586.09 887.027,1585.43 885.5,1585.5C 861.879,1571.71 843.046,1553.05 829,1529.5C 825.343,1522.69 822.177,1515.69 819.5,1508.5C 819.245,1506.03 818.245,1504.03 816.5,1502.5C 813.181,1491.22 810.514,1479.89 808.5,1468.5C 807.657,1454.52 807.324,1440.52 807.5,1426.5C 808.283,1418.47 809.283,1410.47 810.5,1402.5C 813.659,1397.77 815.326,1392.44 815.5,1386.5C 815.993,1384.19 816.326,1381.86 816.5,1379.5C 818.796,1373.52 821.129,1367.52 823.5,1361.5C 824.906,1361.03 825.573,1360.03 825.5,1358.5C 827.664,1353.5 830.331,1348.83 833.5,1344.5C 834.735,1344.28 835.735,1343.61 836.5,1342.5C 837.355,1340.05 838.355,1337.71 839.5,1335.5C 842.582,1331.02 845.916,1326.68 849.5,1322.5C 853.167,1320.83 855.833,1318.17 857.5,1314.5C 867.045,1305.29 877.712,1297.62 889.5,1291.5C 894.001,1290.91 898.001,1289.25 901.5,1286.5C 904.018,1285.74 906.351,1284.74 908.5,1283.5C 911.397,1282.87 914.064,1281.87 916.5,1280.5C 919.152,1280.59 921.485,1279.92 923.5,1278.5C 928.074,1277.19 932.74,1276.19 937.5,1275.5C 942.731,1275.56 947.731,1274.89 952.5,1273.5C 977.24,1272.14 1001.57,1274.81 1025.5,1281.5 Z"/></g>
<g><path style="opacity:1" fill="#5b6065" d="M 952.5,1273.5 C 947.731,1274.89 942.731,1275.56 937.5,1275.5C 942.269,1274.11 947.269,1273.44 952.5,1273.5 Z"/></g>
<g><path style="opacity:1" fill="#595d61" d="M 923.5,1278.5 C 921.485,1279.92 919.152,1280.59 916.5,1280.5C 918.515,1279.08 920.848,1278.41 923.5,1278.5 Z"/></g>
<g><path style="opacity:1" fill="#606468" d="M 1570.5,1281.5 C 1560.48,1281.41 1550.48,1281.74 1540.5,1282.5C 1546.08,1280.97 1551.92,1280.3 1558,1280.5C 1562.35,1280.5 1566.51,1280.83 1570.5,1281.5 Z"/></g>
<g><path style="opacity:1" fill="#72767a" d="M 916.5,1280.5 C 914.064,1281.87 911.397,1282.87 908.5,1283.5C 910.617,1281.35 913.284,1280.35 916.5,1280.5 Z"/></g>
<g><path style="opacity:1" fill="#6d7075" d="M 1025.5,1281.5 C 1027.97,1281.75 1029.97,1282.75 1031.5,1284.5C 1029.03,1284.25 1027.03,1283.25 1025.5,1281.5 Z"/></g>
<g><path style="opacity:1" fill="#192026" d="M 1570.5,1281.5 C 1578.63,1281.57 1586.63,1282.57 1594.5,1284.5C 1596.51,1285.92 1598.85,1286.59 1601.5,1286.5C 1601.83,1286.5 1602.17,1286.5 1602.5,1286.5C 1605.52,1288.4 1608.85,1289.73 1612.5,1290.5C 1633.96,1299.96 1652.3,1313.63 1667.5,1331.5C 1667.5,1332.17 1667.5,1332.83 1667.5,1333.5C 1667.69,1335.91 1669.03,1336.91 1671.5,1336.5C 1671.5,1321.17 1671.5,1305.83 1671.5,1290.5C 1693.5,1290.5 1715.5,1290.5 1737.5,1290.5C 1737.5,1394.5 1737.5,1498.5 1737.5,1602.5C 1715.83,1602.5 1694.17,1602.5 1672.5,1602.5C 1673.14,1586.43 1672.48,1570.59 1670.5,1555C 1671.65,1554.09 1671.49,1553.25 1670,1552.5C 1668.73,1553.9 1668.23,1555.57 1668.5,1557.5C 1667.45,1557.35 1666.45,1557.52 1665.5,1558C 1666.25,1558.67 1666.59,1559.5 1666.5,1560.5C 1665.4,1561.6 1664.73,1562.94 1664.5,1564.5C 1661.76,1566.24 1659.76,1568.57 1658.5,1571.5C 1646.11,1583.57 1632.11,1593.24 1616.5,1600.5C 1612.06,1601.41 1608.06,1603.08 1604.5,1605.5C 1595.67,1608.27 1586.67,1610.27 1577.5,1611.5C 1563.48,1611.65 1549.48,1611.32 1535.5,1610.5C 1534.83,1610.5 1534.17,1610.5 1533.5,1610.5C 1531.49,1609.08 1529.15,1608.41 1526.5,1608.5C 1526.17,1608.5 1525.83,1608.5 1525.5,1608.5C 1523.49,1607.08 1521.15,1606.41 1518.5,1606.5C 1516.06,1605.13 1513.4,1604.13 1510.5,1603.5C 1479.02,1591.35 1455.35,1570.35 1439.5,1540.5C 1439.57,1538.97 1438.91,1537.97 1437.5,1537.5C 1434.3,1530.56 1431.3,1523.56 1428.5,1516.5C 1428.28,1512.84 1427.28,1509.5 1425.5,1506.5C 1425.59,1503.85 1424.92,1501.51 1423.5,1499.5C 1423.13,1494.67 1422.13,1490.01 1420.5,1485.5C 1420.5,1481.47 1420.16,1477.47 1419.5,1473.5C 1418.17,1454.5 1418.17,1435.5 1419.5,1416.5C 1419.5,1416.17 1419.5,1415.83 1419.5,1415.5C 1420.58,1412.37 1421.25,1409.04 1421.5,1405.5C 1421.5,1404.17 1421.5,1402.83 1421.5,1401.5C 1422.92,1399.49 1423.59,1397.15 1423.5,1394.5C 1426.31,1381.89 1430.65,1369.89 1436.5,1358.5C 1437.91,1358.03 1438.57,1357.03 1438.5,1355.5C 1442.66,1346.68 1448,1338.68 1454.5,1331.5C 1456.59,1330.42 1457.92,1328.75 1458.5,1326.5C 1473.1,1309.2 1491.1,1296.87 1512.5,1289.5C 1521.93,1287 1531.26,1284.67 1540.5,1282.5C 1550.48,1281.74 1560.48,1281.41 1570.5,1281.5 Z"/></g>
<g><path style="opacity:1" fill="#6b6e73" d="M 908.5,1283.5 C 906.351,1284.74 904.018,1285.74 901.5,1286.5C 903.09,1284.18 905.423,1283.18 908.5,1283.5 Z"/></g>
<g><path style="opacity:1" fill="#818489" d="M 1594.5,1284.5 C 1597.15,1284.41 1599.49,1285.08 1601.5,1286.5C 1598.85,1286.59 1596.51,1285.92 1594.5,1284.5 Z"/></g>
<g><path style="opacity:1" fill="#464b50" d="M 621.5,1281.5 C 620.974,1285.91 618.974,1289.25 615.5,1291.5C 617,1287.83 619,1284.49 621.5,1281.5 Z"/></g>
<g><path style="opacity:1" fill="#c0c3c5" d="M 1218.5,1195.5 C 1218.5,1195.83 1218.5,1196.17 1218.5,1196.5C 1218.5,1226.5 1218.5,1256.5 1218.5,1286.5C 1196.83,1286.5 1175.17,1286.5 1153.5,1286.5C 1174.66,1285.5 1195.99,1285.17 1217.5,1285.5C 1217.17,1255.33 1217.5,1225.33 1218.5,1195.5 Z"/></g>
<g><path style="opacity:1" fill="#d5d7d8" d="M 1286.5,1195.5 C 1287.5,1225.33 1287.83,1255.33 1287.5,1285.5C 1318.34,1285.17 1349,1285.5 1379.5,1286.5C 1348.5,1286.5 1317.5,1286.5 1286.5,1286.5C 1286.5,1256.17 1286.5,1225.83 1286.5,1195.5 Z"/></g>
<g><path style="opacity:1" fill="#64696e" d="M 1218.5,1196.5 C 1218.5,1196.17 1218.5,1195.83 1218.5,1195.5C 1241.17,1195.5 1263.83,1195.5 1286.5,1195.5C 1286.5,1225.83 1286.5,1256.17 1286.5,1286.5C 1317.5,1286.5 1348.5,1286.5 1379.5,1286.5C 1379.5,1286.83 1379.5,1287.17 1379.5,1287.5C 1379.17,1287.5 1378.83,1287.5 1378.5,1287.5C 1347.5,1287.5 1316.5,1287.5 1285.5,1287.5C 1285.5,1257.17 1285.5,1226.83 1285.5,1196.5C 1263.17,1196.5 1240.83,1196.5 1218.5,1196.5 Z"/></g>
<g><path style="opacity:1" fill="#53575c" d="M 1540.5,1282.5 C 1531.26,1284.67 1521.93,1287 1512.5,1289.5C 1521.24,1285.15 1530.57,1282.82 1540.5,1282.5 Z"/></g>
<g><path style="opacity:1" fill="#989b9e" d="M 1602.5,1286.5 C 1606.36,1286.77 1609.69,1288.1 1612.5,1290.5C 1608.85,1289.73 1605.52,1288.4 1602.5,1286.5 Z"/></g>
<g><path style="opacity:1" fill="#4d5156" d="M 901.5,1286.5 C 898.001,1289.25 894.001,1290.91 889.5,1291.5C 892.999,1288.75 896.999,1287.09 901.5,1286.5 Z"/></g>
<g><path style="opacity:1" fill="#ceced1" d="M 1670.5,1289.5 C 1670.67,1304.84 1670.5,1320.17 1670,1335.5C 1669.29,1334.62 1668.46,1333.95 1667.5,1333.5C 1667.5,1332.83 1667.5,1332.17 1667.5,1331.5C 1669.16,1317.7 1670.16,1303.7 1670.5,1289.5 Z"/></g>
<g><path style="opacity:1" fill="#393e45" d="M 1670.5,1289.5 C 1693.17,1289.5 1715.83,1289.5 1738.5,1289.5C 1738.83,1394.33 1738.5,1499 1737.5,1603.5C 1737.5,1603.17 1737.5,1602.83 1737.5,1602.5C 1737.5,1498.5 1737.5,1394.5 1737.5,1290.5C 1715.5,1290.5 1693.5,1290.5 1671.5,1290.5C 1671.5,1305.83 1671.5,1321.17 1671.5,1336.5C 1669.03,1336.91 1667.69,1335.91 1667.5,1333.5C 1668.46,1333.95 1669.29,1334.62 1670,1335.5C 1670.5,1320.17 1670.67,1304.84 1670.5,1289.5 Z"/></g>
<g><path style="opacity:1" fill="#cbcecf" d="M 1670.5,1289.5 C 1693.66,1288.5 1716.99,1288.17 1740.5,1288.5C 1740.5,1393.83 1740.5,1499.17 1740.5,1604.5C 1717.33,1604.83 1694.33,1604.5 1671.5,1603.5C 1693.5,1603.5 1715.5,1603.5 1737.5,1603.5C 1738.5,1499 1738.83,1394.33 1738.5,1289.5C 1715.83,1289.5 1693.17,1289.5 1670.5,1289.5 Z"/></g>
<g><path style="opacity:1" fill="#555a5d" d="M 615.5,1291.5 C 615.408,1293.85 614.408,1295.51 612.5,1296.5C 612.75,1294.33 613.75,1292.66 615.5,1291.5 Z"/></g>
<g><path style="opacity:1" fill="#abaeb1" d="M 368.5,1287.5 C 369.11,1288.39 369.443,1289.39 369.5,1290.5C 368.883,1290.39 368.383,1290.06 368,1289.5C 367.833,1306.17 367.667,1322.83 367.5,1339.5C 368.685,1430.67 368.685,1521.67 367.5,1612.5C 367.832,1567.66 367.499,1523 366.5,1478.5C 366.5,1433.83 366.5,1389.17 366.5,1344.5C 365.846,1325.14 366.513,1306.14 368.5,1287.5 Z"/></g>
<g><path style="opacity:1" fill="#b0b3b6" d="M 1066.5,1303.5 C 1069.09,1304.42 1071.09,1306.09 1072.5,1308.5C 1069.91,1307.58 1067.91,1305.91 1066.5,1303.5 Z"/></g>
<g><path style="opacity:1" fill="#484c52" d="M 612.5,1296.5 C 611.67,1301.51 609.337,1305.51 605.5,1308.5C 607.332,1304.16 609.665,1300.16 612.5,1296.5 Z"/></g>
<g><path style="opacity:1" fill="#43474c" d="M 368.5,1287.5 C 366.513,1306.14 365.846,1325.14 366.5,1344.5C 365.172,1325 365.172,1305.33 366.5,1285.5C 367.522,1285.86 368.189,1286.52 368.5,1287.5 Z"/></g>
<g><path style="opacity:1" fill="#a0a3a7" d="M 673.5,1308.5 C 673.573,1310.03 672.906,1311.03 671.5,1311.5C 671.427,1309.97 672.094,1308.97 673.5,1308.5 Z"/></g>
<g><path style="opacity:1" fill="#cbcdcf" d="M 685.5,1396.5 C 685.667,1361.17 685.5,1325.83 685,1290.5C 684.764,1292.12 683.931,1293.12 682.5,1293.5C 682.66,1291.85 683.326,1290.51 684.5,1289.5C 685.117,1289.39 685.617,1289.06 686,1288.5C 686.831,1324.67 686.664,1360.67 685.5,1396.5 Z"/></g>
<g><path style="opacity:1" fill="#61666b" d="M 686.5,1574.5 C 686.167,1574.5 685.833,1574.5 685.5,1574.5C 685.5,1515.17 685.5,1455.83 685.5,1396.5C 686.664,1360.67 686.831,1324.67 686,1288.5C 685.617,1289.06 685.117,1289.39 684.5,1289.5C 684.415,1288 685.081,1287 686.5,1286.5C 687.535,1382.5 687.535,1478.5 686.5,1574.5 Z"/></g>
<g><path style="opacity:1" fill="#939699" d="M 383.5,1314.5 C 384.906,1314.97 385.573,1315.97 385.5,1317.5C 384.094,1317.03 383.427,1316.03 383.5,1314.5 Z"/></g>
<g><path style="opacity:1" fill="#585c60" d="M 857.5,1314.5 C 855.833,1318.17 853.167,1320.83 849.5,1322.5C 851.833,1319.5 854.5,1316.83 857.5,1314.5 Z"/></g>
<g><path style="opacity:1" fill="#4d5257" d="M 1081.5,1318.5 C 1083.59,1319.58 1084.92,1321.25 1085.5,1323.5C 1083.41,1322.42 1082.08,1320.75 1081.5,1318.5 Z"/></g>
<g><path style="opacity:1" fill="#bcbfc2" d="M 385.5,1317.5 C 386.89,1318.9 387.89,1320.57 388.5,1322.5C 386.241,1321.66 385.241,1319.99 385.5,1317.5 Z"/></g>
<g><path style="opacity:1" fill="#bcbdbf" d="M 388.5,1322.5 C 389.89,1323.9 390.89,1325.57 391.5,1327.5C 389.241,1326.66 388.241,1324.99 388.5,1322.5 Z"/></g>
<g><path style="opacity:1" fill="#575b60" d="M 597.5,1322.5 C 597.408,1324.85 596.408,1326.51 594.5,1327.5C 594.75,1325.33 595.75,1323.66 597.5,1322.5 Z"/></g>
<g><path style="opacity:1" fill="#64686c" d="M 1458.5,1326.5 C 1457.92,1328.75 1456.59,1330.42 1454.5,1331.5C 1455.08,1329.25 1456.41,1327.58 1458.5,1326.5 Z"/></g>
<g><path style="opacity:1" fill="#fdfdfd" d="M 991.5,1332.5 C 993.515,1333.92 995.848,1334.59 998.5,1334.5C 1001.75,1336.03 1005.08,1337.36 1008.5,1338.5C 1008.97,1339.91 1009.97,1340.57 1011.5,1340.5C 1025.91,1347.25 1036.25,1357.91 1042.5,1372.5C 1042.43,1374.03 1043.09,1375.03 1044.5,1375.5C 1045.93,1377.56 1046.6,1379.89 1046.5,1382.5C 1046.41,1385.15 1047.08,1387.49 1048.5,1389.5C 1049.87,1393.97 1050.87,1398.64 1051.5,1403.5C 1051.5,1406.5 1051.5,1409.5 1051.5,1412.5C 994.833,1412.5 938.167,1412.5 881.5,1412.5C 881.5,1411.5 881.5,1410.5 881.5,1409.5C 882.924,1407.49 883.59,1405.15 883.5,1402.5C 883.5,1402.17 883.5,1401.83 883.5,1401.5C 884.924,1399.49 885.59,1397.15 885.5,1394.5C 885.5,1394.17 885.5,1393.83 885.5,1393.5C 888.331,1390.91 889.665,1387.58 889.5,1383.5C 891.771,1381.39 893.104,1378.72 893.5,1375.5C 900.006,1361.33 910.006,1350.33 923.5,1342.5C 925.848,1342.41 927.514,1341.41 928.5,1339.5C 933.704,1338.56 938.37,1336.56 942.5,1333.5C 950.281,1331.12 958.281,1330.12 966.5,1330.5C 974.903,1330.48 983.236,1331.14 991.5,1332.5 Z"/></g>
<g><path style="opacity:1" fill="#53585c" d="M 991.5,1332.5 C 994.152,1332.41 996.485,1333.08 998.5,1334.5C 995.848,1334.59 993.515,1333.92 991.5,1332.5 Z"/></g>
<g><path style="opacity:1" fill="#a1a4a7" d="M 657.5,1335.5 C 657.573,1337.03 656.906,1338.03 655.5,1338.5C 655.427,1336.97 656.094,1335.97 657.5,1335.5 Z"/></g>
<g><path style="opacity:1" fill="#ccced0" d="M 942.5,1333.5 C 938.37,1336.56 933.704,1338.56 928.5,1339.5C 932.679,1336.55 937.346,1334.55 942.5,1333.5 Z"/></g>
<g><path style="opacity:1" fill="#75797d" d="M 464.5,1337.5 C 465.906,1337.97 466.573,1338.97 466.5,1340.5C 465.094,1340.03 464.427,1339.03 464.5,1337.5 Z"/></g>
<g><path style="opacity:1" fill="#9c9fa1" d="M 1008.5,1338.5 C 1010.03,1338.43 1011.03,1339.09 1011.5,1340.5C 1009.97,1340.57 1008.97,1339.91 1008.5,1338.5 Z"/></g>
<g><path style="opacity:1" fill="#44484e" d="M 839.5,1335.5 C 838.355,1337.71 837.355,1340.05 836.5,1342.5C 835.735,1343.61 834.735,1344.28 833.5,1344.5C 834.723,1340.95 836.723,1337.95 839.5,1335.5 Z"/></g>
<g><path style="opacity:1" fill="#b7b9bb" d="M 928.5,1339.5 C 927.514,1341.41 925.848,1342.41 923.5,1342.5C 924.659,1340.75 926.326,1339.75 928.5,1339.5 Z"/></g>
<g><path style="opacity:1" fill="#a7aaad" d="M 1591.5,1340.5 C 1591.5,1340.83 1591.5,1341.17 1591.5,1341.5C 1580.48,1341.38 1569.48,1341.71 1558.5,1342.5C 1569.23,1339.54 1580.23,1338.87 1591.5,1340.5 Z"/></g>
<g><path style="opacity:1" fill="#fefefe" d="M 1591.5,1341.5 C 1594.13,1342.09 1596.79,1342.42 1599.5,1342.5C 1602.6,1342.76 1605.6,1343.42 1608.5,1344.5C 1611.05,1346.58 1614.05,1347.92 1617.5,1348.5C 1636.61,1358.27 1650.61,1372.94 1659.5,1392.5C 1659.75,1394.97 1660.75,1396.97 1662.5,1398.5C 1663.17,1400.83 1663.83,1403.17 1664.5,1405.5C 1664.26,1407.9 1664.93,1409.9 1666.5,1411.5C 1666.5,1411.83 1666.5,1412.17 1666.5,1412.5C 1666.42,1418.48 1667.42,1424.15 1669.5,1429.5C 1670.49,1438.65 1670.83,1447.99 1670.5,1457.5C 1669.29,1461.62 1668.62,1465.95 1668.5,1470.5C 1667.78,1472.76 1667.45,1475.1 1667.5,1477.5C 1666.08,1479.51 1665.41,1481.85 1665.5,1484.5C 1661.53,1496.39 1656.19,1507.73 1649.5,1518.5C 1647.41,1519.58 1646.08,1521.25 1645.5,1523.5C 1637.27,1532.07 1627.94,1539.07 1617.5,1544.5C 1614.05,1545.08 1611.05,1546.42 1608.5,1548.5C 1606.9,1548.23 1605.57,1548.57 1604.5,1549.5C 1600.96,1549.75 1597.63,1550.42 1594.5,1551.5C 1594.17,1551.5 1593.83,1551.5 1593.5,1551.5C 1581.82,1551.64 1570.15,1551.3 1558.5,1550.5C 1558.17,1550.5 1557.83,1550.5 1557.5,1550.5C 1555.9,1548.93 1553.9,1548.26 1551.5,1548.5C 1549.71,1548.63 1548.04,1548.3 1546.5,1547.5C 1546.03,1546.09 1545.03,1545.43 1543.5,1545.5C 1542.39,1545.44 1541.39,1545.11 1540.5,1544.5C 1540.03,1543.09 1539.03,1542.43 1537.5,1542.5C 1532.33,1540.66 1528,1537.66 1524.5,1533.5C 1523.42,1531.41 1521.75,1530.08 1519.5,1529.5C 1518.17,1527.5 1516.5,1525.83 1514.5,1524.5C 1507.54,1516.52 1502.21,1507.52 1498.5,1497.5C 1497.59,1493.06 1495.92,1489.06 1493.5,1485.5C 1491.33,1476.97 1490,1468.31 1489.5,1459.5C 1489.35,1446.82 1489.68,1434.15 1490.5,1421.5C 1490.5,1420.83 1490.5,1420.17 1490.5,1419.5C 1491.92,1417.49 1492.59,1415.15 1492.5,1412.5C 1492.5,1412.17 1492.5,1411.83 1492.5,1411.5C 1494.47,1408.92 1495.47,1405.92 1495.5,1402.5C 1496.94,1397.98 1498.6,1393.65 1500.5,1389.5C 1501.91,1389.03 1502.57,1388.03 1502.5,1386.5C 1504.6,1380.63 1507.93,1375.63 1512.5,1371.5C 1516.83,1367.83 1520.83,1363.83 1524.5,1359.5C 1528.3,1355.76 1532.64,1352.76 1537.5,1350.5C 1539.03,1350.57 1540.03,1349.91 1540.5,1348.5C 1543.33,1347.04 1546.33,1346.04 1549.5,1345.5C 1552.4,1344.87 1555.06,1343.87 1557.5,1342.5C 1557.83,1342.5 1558.17,1342.5 1558.5,1342.5C 1569.48,1341.71 1580.48,1341.38 1591.5,1341.5 Z"/></g>
<g><path style="opacity:1" fill="#86898c" d="M 1591.5,1341.5 C 1591.5,1341.17 1591.5,1340.83 1591.5,1340.5C 1594.43,1340.57 1597.09,1341.23 1599.5,1342.5C 1596.79,1342.42 1594.13,1342.09 1591.5,1341.5 Z"/></g>
<g><path style="opacity:1" fill="#b3b6b8" d="M 655.5,1338.5 C 655.408,1340.85 654.408,1342.51 652.5,1343.5C 652.75,1341.33 653.75,1339.66 655.5,1338.5 Z"/></g>
<g><path style="opacity:1" fill="#6c6f74" d="M 1097.5,1340.5 C 1098.91,1340.97 1099.57,1341.97 1099.5,1343.5C 1098.09,1343.03 1097.43,1342.03 1097.5,1340.5 Z"/></g>
<g><path style="opacity:1" fill="#545a5e" d="M 1153.5,1286.5 C 1175.17,1286.5 1196.83,1286.5 1218.5,1286.5C 1197.34,1287.5 1176.01,1287.83 1154.5,1287.5C 1154.5,1306.17 1154.5,1324.83 1154.5,1343.5C 1176.01,1343.17 1197.34,1343.5 1218.5,1344.5C 1196.83,1344.5 1175.17,1344.5 1153.5,1344.5C 1153.5,1325.17 1153.5,1305.83 1153.5,1286.5 Z"/></g>
<g><path style="opacity:1" fill="#4d5257" d="M 1378.5,1287.5 C 1378.83,1287.5 1379.17,1287.5 1379.5,1287.5C 1379.5,1306.5 1379.5,1325.5 1379.5,1344.5C 1348.17,1344.5 1316.83,1344.5 1285.5,1344.5C 1316.33,1343.5 1347.33,1343.17 1378.5,1343.5C 1378.5,1324.83 1378.5,1306.17 1378.5,1287.5 Z"/></g>
<g><path style="opacity:1" fill="#878a8e" d="M 1557.5,1342.5 C 1555.06,1343.87 1552.4,1344.87 1549.5,1345.5C 1551.62,1343.35 1554.28,1342.35 1557.5,1342.5 Z"/></g>
<g><path style="opacity:1" fill="#a7aaad" d="M 1285.5,1344.5 C 1316.83,1344.5 1348.17,1344.5 1379.5,1344.5C 1348.67,1345.5 1317.67,1345.83 1286.5,1345.5C 1286.5,1400.83 1286.5,1456.17 1286.5,1511.5C 1285.5,1456 1285.17,1400.34 1285.5,1344.5 Z"/></g>
<g><path style="opacity:1" fill="#575b60" d="M 1608.5,1344.5 C 1609.87,1344.34 1611.21,1344.51 1612.5,1345C 1614.43,1345.9 1616.1,1347.07 1617.5,1348.5C 1614.05,1347.92 1611.05,1346.58 1608.5,1344.5 Z"/></g>
<g><path style="opacity:1" fill="#8b8f92" d="M 1099.5,1343.5 C 1100.91,1343.97 1101.57,1344.97 1101.5,1346.5C 1100.09,1346.03 1099.43,1345.03 1099.5,1343.5 Z"/></g>
<g><path style="opacity:1" fill="#b9bbbe" d="M 652.5,1343.5 C 652.264,1346.62 650.931,1348.95 648.5,1350.5C 649.079,1347.67 650.412,1345.34 652.5,1343.5 Z"/></g>
<g><path style="opacity:1" fill="#929598" d="M 402.5,1346.5 C 403.906,1346.97 404.573,1347.97 404.5,1349.5C 403.094,1349.03 402.427,1348.03 402.5,1346.5 Z"/></g>
<g><path style="opacity:1" fill="#ebeced" d="M 1216.5,1345.5 C 1217.17,1404.17 1217.83,1462.83 1218.5,1521.5C 1218.85,1527.97 1219.85,1534.3 1221.5,1540.5C 1220.44,1539.4 1219.61,1538.07 1219,1536.5C 1218.33,1531.83 1217.67,1527.17 1217,1522.5C 1216.5,1463.5 1216.33,1404.5 1216.5,1345.5 Z"/></g>
<g><path style="opacity:1" fill="#a8acb0" d="M 1153.5,1344.5 C 1175.17,1344.5 1196.83,1344.5 1218.5,1344.5C 1218.5,1403.5 1218.5,1462.5 1218.5,1521.5C 1217.83,1462.83 1217.17,1404.17 1216.5,1345.5C 1195.33,1345.83 1174.33,1345.5 1153.5,1344.5 Z"/></g>
<g><path style="opacity:1" fill="#878b8f" d="M 1540.5,1348.5 C 1540.03,1349.91 1539.03,1350.57 1537.5,1350.5C 1537.97,1349.09 1538.97,1348.43 1540.5,1348.5 Z"/></g>
<g><path style="opacity:1" fill="#7c7f84" d="M 404.5,1349.5 C 405.906,1349.97 406.573,1350.97 406.5,1352.5C 405.094,1352.03 404.427,1351.03 404.5,1349.5 Z"/></g>
<g><path style="opacity:1" fill="#888a8f" d="M 1438.5,1355.5 C 1438.57,1357.03 1437.91,1358.03 1436.5,1358.5C 1436.43,1356.97 1437.09,1355.97 1438.5,1355.5 Z"/></g>
<g><path style="opacity:1" fill="#929699" d="M 408.5,1356.5 C 409.906,1356.97 410.573,1357.97 410.5,1359.5C 409.094,1359.03 408.427,1358.03 408.5,1356.5 Z"/></g>
<g><path style="opacity:1" fill="#5d6266" d="M 1105.5,1355.5 C 1107.07,1357.51 1108.07,1359.84 1108.5,1362.5C 1106.17,1360.82 1105.17,1358.49 1105.5,1355.5 Z"/></g>
<g><path style="opacity:1" fill="#9b9da1" d="M 825.5,1358.5 C 825.573,1360.03 824.906,1361.03 823.5,1361.5C 823.427,1359.97 824.094,1358.97 825.5,1358.5 Z"/></g>
<g><path style="opacity:1" fill="#595d62" d="M 576.5,1358.5 C 576.264,1361.62 574.931,1363.95 572.5,1365.5C 573.079,1362.67 574.412,1360.34 576.5,1358.5 Z"/></g>
<g><path style="opacity:1" fill="#adb0b2" d="M 1524.5,1359.5 C 1520.83,1363.83 1516.83,1367.83 1512.5,1371.5C 1515.5,1366.5 1519.5,1362.5 1524.5,1359.5 Z"/></g>
<g><path style="opacity:1" fill="#7c7e83" d="M 1042.5,1372.5 C 1043.91,1372.97 1044.57,1373.97 1044.5,1375.5C 1043.09,1375.03 1042.43,1374.03 1042.5,1372.5 Z"/></g>
<g><path style="opacity:1" fill="#919497" d="M 421.5,1378.5 C 422.906,1378.97 423.573,1379.97 423.5,1381.5C 422.094,1381.03 421.427,1380.03 421.5,1378.5 Z"/></g>
<g><path style="opacity:1" fill="#bcbfc2" d="M 632.5,1377.5 C 632.408,1379.85 631.408,1381.51 629.5,1382.5C 629.75,1380.33 630.75,1378.66 632.5,1377.5 Z"/></g>
<g><path style="opacity:1" fill="#a8aaad" d="M 893.5,1375.5 C 893.104,1378.72 891.771,1381.39 889.5,1383.5C 889.896,1380.28 891.229,1377.61 893.5,1375.5 Z"/></g>
<g><path style="opacity:1" fill="#85888b" d="M 816.5,1379.5 C 816.326,1381.86 815.993,1384.19 815.5,1386.5C 815.167,1386.5 814.833,1386.5 814.5,1386.5C 814.41,1383.85 815.076,1381.51 816.5,1379.5 Z"/></g>
<g><path style="opacity:1" fill="#8e9195" d="M 424.5,1383.5 C 425.906,1383.97 426.573,1384.97 426.5,1386.5C 425.094,1386.03 424.427,1385.03 424.5,1383.5 Z"/></g>
<g><path style="opacity:1" fill="#b9bcbd" d="M 1046.5,1382.5 C 1047.92,1384.51 1048.59,1386.85 1048.5,1389.5C 1047.08,1387.49 1046.41,1385.15 1046.5,1382.5 Z"/></g>
<g><path style="opacity:1" fill="#bebfc2" d="M 629.5,1382.5 C 629.408,1384.85 628.408,1386.51 626.5,1387.5C 626.75,1385.33 627.75,1383.66 629.5,1382.5 Z"/></g>
<g><path style="opacity:1" fill="#717679" d="M 560.5,1386.5 C 560.573,1388.03 559.906,1389.03 558.5,1389.5C 558.427,1387.97 559.094,1386.97 560.5,1386.5 Z"/></g>
<g><path style="opacity:1" fill="#8b8f92" d="M 1502.5,1386.5 C 1502.57,1388.03 1501.91,1389.03 1500.5,1389.5C 1500.43,1387.97 1501.09,1386.97 1502.5,1386.5 Z"/></g>
<g><path style="opacity:1" fill="#c7c9cc" d="M 889.5,1383.5 C 889.665,1387.58 888.331,1390.91 885.5,1393.5C 886.267,1389.85 887.6,1386.52 889.5,1383.5 Z"/></g>
<g><path style="opacity:1" fill="#6b6f72" d="M 1114.5,1384.5 C 1115.92,1386.51 1116.59,1388.85 1116.5,1391.5C 1115.08,1389.49 1114.41,1387.15 1114.5,1384.5 Z"/></g>
<g><path style="opacity:1" fill="#676b6f" d="M 494.5,1389.5 C 495.906,1389.97 496.573,1390.97 496.5,1392.5C 495.094,1392.03 494.427,1391.03 494.5,1389.5 Z"/></g>
<g><path style="opacity:1" fill="#a3a6a9" d="M 428.5,1390.5 C 429.906,1390.97 430.573,1391.97 430.5,1393.5C 429.094,1393.03 428.427,1392.03 428.5,1390.5 Z"/></g>
<g><path style="opacity:1" fill="#484d52" d="M 814.5,1386.5 C 814.833,1386.5 815.167,1386.5 815.5,1386.5C 815.326,1392.44 813.659,1397.77 810.5,1402.5C 811.468,1396.97 812.801,1391.63 814.5,1386.5 Z"/></g>
<g><path style="opacity:1" fill="#4e5257" d="M 557.5,1391.5 C 557.264,1394.62 555.931,1396.95 553.5,1398.5C 554.079,1395.67 555.412,1393.34 557.5,1391.5 Z"/></g>
<g><path style="opacity:1" fill="#abadb0" d="M 1116.5,1392.5 C 1117.22,1392.92 1117.72,1393.58 1118,1394.5C 1118.98,1399.79 1119.48,1405.13 1119.5,1410.5C 1118.31,1404.66 1117.31,1398.66 1116.5,1392.5 Z"/></g>
<g><path style="opacity:1" fill="#7e8185" d="M 1659.5,1392.5 C 1661.25,1394.03 1662.25,1396.03 1662.5,1398.5C 1660.75,1396.97 1659.75,1394.97 1659.5,1392.5 Z"/></g>
<g><path style="opacity:1" fill="#64696e" d="M 498.5,1396.5 C 499.906,1396.97 500.573,1397.97 500.5,1399.5C 499.094,1399.03 498.427,1398.03 498.5,1396.5 Z"/></g>
<g><path style="opacity:1" fill="#a3a5a9" d="M 885.5,1394.5 C 885.59,1397.15 884.924,1399.49 883.5,1401.5C 883.41,1398.85 884.076,1396.51 885.5,1394.5 Z"/></g>
<g><path style="opacity:1" fill="#95989b" d="M 1423.5,1394.5 C 1423.59,1397.15 1422.92,1399.49 1421.5,1401.5C 1421.41,1398.85 1422.08,1396.51 1423.5,1394.5 Z"/></g>
<g><path style="opacity:1" fill="#4e5358" d="M 553.5,1398.5 C 553.408,1400.85 552.408,1402.51 550.5,1403.5C 550.75,1401.33 551.75,1399.66 553.5,1398.5 Z"/></g>
<g><path style="opacity:1" fill="#abaeb1" d="M 1495.5,1402.5 C 1495.47,1405.92 1494.47,1408.92 1492.5,1411.5C 1492.69,1408.14 1493.69,1405.14 1495.5,1402.5 Z"/></g>
<g><path style="opacity:1" fill="#979b9e" d="M 616.5,1404.5 C 616.573,1406.03 615.906,1407.03 614.5,1407.5C 614.427,1405.97 615.094,1404.97 616.5,1404.5 Z"/></g>
<g><path style="opacity:1" fill="#999ca1" d="M 883.5,1402.5 C 883.59,1405.15 882.924,1407.49 881.5,1409.5C 881.41,1406.85 882.076,1404.51 883.5,1402.5 Z"/></g>
<g><path style="opacity:1" fill="#818589" d="M 1421.5,1405.5 C 1421.25,1409.04 1420.58,1412.37 1419.5,1415.5C 1419.34,1412.81 1419.5,1410.15 1420,1407.5C 1420.28,1406.58 1420.78,1405.92 1421.5,1405.5 Z"/></g>
<g><path style="opacity:1" fill="#909397" d="M 1664.5,1405.5 C 1666.07,1407.1 1666.74,1409.1 1666.5,1411.5C 1664.93,1409.9 1664.26,1407.9 1664.5,1405.5 Z"/></g>
<g><path style="opacity:1" fill="#8d9195" d="M 440.5,1410.5 C 441.906,1410.97 442.573,1411.97 442.5,1413.5C 441.094,1413.03 440.427,1412.03 440.5,1410.5 Z"/></g>
<g><path style="opacity:1" fill="#a6a9ab" d="M 1051.5,1403.5 C 1052.83,1406.83 1052.83,1410.17 1051.5,1413.5C 994.664,1413.83 937.998,1413.5 881.5,1412.5C 938.167,1412.5 994.833,1412.5 1051.5,1412.5C 1051.5,1409.5 1051.5,1406.5 1051.5,1403.5 Z"/></g>
<g><path style="opacity:1" fill="#373d43" d="M 881.5,1409.5 C 881.5,1410.5 881.5,1411.5 881.5,1412.5C 937.998,1413.5 994.664,1413.83 1051.5,1413.5C 994.669,1414.5 937.669,1414.83 880.5,1414.5C 880.216,1412.59 880.549,1410.92 881.5,1409.5 Z"/></g>
<g><path style="opacity:1" fill="#8f9296" d="M 443.5,1415.5 C 444.906,1415.97 445.573,1416.97 445.5,1418.5C 444.094,1418.03 443.427,1417.03 443.5,1415.5 Z"/></g>
<g><path style="opacity:1" fill="#8a8f93" d="M 1492.5,1412.5 C 1492.59,1415.15 1491.92,1417.49 1490.5,1419.5C 1490.41,1416.85 1491.08,1414.51 1492.5,1412.5 Z"/></g>
<g><path style="opacity:1" fill="#babcbe" d="M 1666.5,1412.5 C 1668.63,1417.84 1669.63,1423.51 1669.5,1429.5C 1667.42,1424.15 1666.42,1418.48 1666.5,1412.5 Z"/></g>
<g><path style="opacity:1" fill="#4f5458" d="M 542.5,1417.5 C 542.408,1419.85 541.408,1421.51 539.5,1422.5C 539.75,1420.33 540.75,1418.66 542.5,1417.5 Z"/></g>
<g><path style="opacity:1" fill="#a2a5a8" d="M 447.5,1422.5 C 448.906,1422.97 449.573,1423.97 449.5,1425.5C 448.094,1425.03 447.427,1424.03 447.5,1422.5 Z"/></g>
<g><path style="opacity:1" fill="#6f7378" d="M 1419.5,1416.5 C 1418.17,1435.5 1418.17,1454.5 1419.5,1473.5C 1419.17,1473.5 1418.83,1473.5 1418.5,1473.5C 1417.38,1456.53 1417.21,1439.53 1418,1422.5C 1418.19,1420.29 1418.69,1418.29 1419.5,1416.5 Z"/></g>
<g><path style="opacity:1" fill="#a5a9ac" d="M 1490.5,1421.5 C 1489.68,1434.15 1489.35,1446.82 1489.5,1459.5C 1488.83,1454.34 1488.5,1449.01 1488.5,1443.5C 1488.29,1435.93 1488.96,1428.6 1490.5,1421.5 Z"/></g>
<g><path style="opacity:1" fill="#bcbfc1" d="M 597.5,1436.5 C 597.408,1438.85 596.408,1440.51 594.5,1441.5C 594.75,1439.33 595.75,1437.66 597.5,1436.5 Z"/></g>
<g><path style="opacity:1" fill="#a2a6aa" d="M 457.5,1439.5 C 458.906,1439.97 459.573,1440.97 459.5,1442.5C 458.094,1442.03 457.427,1441.03 457.5,1439.5 Z"/></g>
<g><path style="opacity:1" fill="#bdbfc2" d="M 594.5,1441.5 C 594.408,1443.85 593.408,1445.51 591.5,1446.5C 591.75,1444.33 592.75,1442.66 594.5,1441.5 Z"/></g>
<g><path style="opacity:1" fill="#a0a3a6" d="M 460.5,1444.5 C 461.906,1444.97 462.573,1445.97 462.5,1447.5C 461.094,1447.03 460.427,1446.03 460.5,1444.5 Z"/></g>
<g><path style="opacity:1" fill="#8d9093" d="M 462.5,1447.5 C 463.906,1447.97 464.573,1448.97 464.5,1450.5C 463.094,1450.03 462.427,1449.03 462.5,1447.5 Z"/></g>
<g><path style="opacity:1" fill="#9fa2a4" d="M 466.5,1454.5 C 467.906,1454.97 468.573,1455.97 468.5,1457.5C 467.094,1457.03 466.427,1456.03 466.5,1454.5 Z"/></g>
<g><path style="opacity:1" fill="#a0a2a6" d="M 1119.5,1412.5 C 1120.17,1418.99 1120.5,1425.66 1120.5,1432.5C 1120.68,1442.38 1120.02,1452.05 1118.5,1461.5C 1118.5,1460.17 1118.5,1458.83 1118.5,1457.5C 1119.36,1442.52 1119.69,1427.52 1119.5,1412.5 Z"/></g>
<g><path style="opacity:1" fill="#5d6166" d="M 1118.5,1457.5 C 1118.5,1458.83 1118.5,1460.17 1118.5,1461.5C 1039.5,1461.5 960.5,1461.5 881.5,1461.5C 881.616,1464.86 881.949,1468.19 882.5,1471.5C 881.778,1471.08 881.278,1470.42 881,1469.5C 880.502,1466.52 880.335,1463.52 880.5,1460.5C 959.5,1460.5 1038.5,1460.5 1117.5,1460.5C 1117.26,1459.21 1117.6,1458.21 1118.5,1457.5 Z"/></g>
<g><path style="opacity:1" fill="#6f7377" d="M 1670.5,1457.5 C 1670.72,1462.1 1670.05,1466.43 1668.5,1470.5C 1668.62,1465.95 1669.29,1461.62 1670.5,1457.5 Z"/></g>
<g><path style="opacity:1" fill="#b6b8bc" d="M 807.5,1426.5 C 807.324,1440.52 807.657,1454.52 808.5,1468.5C 806.965,1460.56 806.298,1452.39 806.5,1444C 806.501,1437.99 806.834,1432.16 807.5,1426.5 Z"/></g>
<g><path style="opacity:1" fill="#bbbdbf" d="M 578.5,1468.5 C 578.408,1470.85 577.408,1472.51 575.5,1473.5C 575.75,1471.33 576.75,1469.66 578.5,1468.5 Z"/></g>
<g><path style="opacity:1" fill="#a1a3a6" d="M 476.5,1471.5 C 477.906,1471.97 478.573,1472.97 478.5,1474.5C 477.094,1474.03 476.427,1473.03 476.5,1471.5 Z"/></g>
<g><path style="opacity:1" fill="#8a8d91" d="M 478.5,1474.5 C 479.906,1474.97 480.573,1475.97 480.5,1477.5C 479.094,1477.03 478.427,1476.03 478.5,1474.5 Z"/></g>
<g><path style="opacity:1" fill="#74787c" d="M 1667.5,1477.5 C 1667.59,1480.15 1666.92,1482.49 1665.5,1484.5C 1665.41,1481.85 1666.08,1479.51 1667.5,1477.5 Z"/></g>
<g><path style="opacity:1" fill="#a9acaf" d="M 1418.5,1473.5 C 1418.83,1473.5 1419.17,1473.5 1419.5,1473.5C 1420.16,1477.47 1420.5,1481.47 1420.5,1485.5C 1418.75,1481.82 1418.08,1477.82 1418.5,1473.5 Z"/></g>
<g><path style="opacity:1" fill="#a1a4a6" d="M 1493.5,1485.5 C 1495.92,1489.06 1497.59,1493.06 1498.5,1497.5C 1496.08,1493.94 1494.41,1489.94 1493.5,1485.5 Z"/></g>
<g><path style="opacity:1" fill="#9c9fa1" d="M 889.5,1493.5 C 890.906,1493.97 891.573,1494.97 891.5,1496.5C 890.094,1496.03 889.427,1495.03 889.5,1493.5 Z"/></g>
<g><path style="opacity:1" fill="#989b9f" d="M 1423.5,1499.5 C 1424.92,1501.51 1425.59,1503.85 1425.5,1506.5C 1424.08,1504.49 1423.41,1502.15 1423.5,1499.5 Z"/></g>
<g><path style="opacity:1" fill="#7a7e83" d="M 893.5,1501.5 C 894.906,1501.97 895.573,1502.97 895.5,1504.5C 894.094,1504.03 893.427,1503.03 893.5,1501.5 Z"/></g>
<g><path style="opacity:1" fill="#777a7f" d="M 816.5,1502.5 C 818.245,1504.03 819.245,1506.03 819.5,1508.5C 817.755,1506.97 816.755,1504.97 816.5,1502.5 Z"/></g>
<g><path style="opacity:1" fill="#cbcdce" d="M 556.5,1505.5 C 556.714,1507.14 556.38,1508.64 555.5,1510C 536.329,1510.83 517.329,1510.66 498.5,1509.5C 517.167,1509.5 535.833,1509.5 554.5,1509.5C 554.229,1507.62 554.896,1506.29 556.5,1505.5 Z"/></g>
<g><path style="opacity:1" fill="#989b9e" d="M 1425.5,1506.5 C 1427.28,1509.5 1428.28,1512.84 1428.5,1516.5C 1426.72,1513.5 1425.72,1510.16 1425.5,1506.5 Z"/></g>
<g><path style="opacity:1" fill="#585d61" d="M 1649.5,1518.5 C 1648.92,1520.75 1647.59,1522.42 1645.5,1523.5C 1646.08,1521.25 1647.41,1519.58 1649.5,1518.5 Z"/></g>
<g><path style="opacity:1" fill="#5e6267" d="M 1514.5,1524.5 C 1516.5,1525.83 1518.17,1527.5 1519.5,1529.5C 1516.83,1528.83 1515.17,1527.17 1514.5,1524.5 Z"/></g>
<g><path style="opacity:1" fill="#565b60" d="M 1089.5,1530.5 C 1087.83,1529.66 1086.66,1528.32 1086,1526.5C 1085.33,1527.25 1084.5,1527.59 1083.5,1527.5C 1083.87,1526.31 1084.7,1525.64 1086,1525.5C 1087.78,1526.77 1088.94,1528.44 1089.5,1530.5 Z"/></g>
<g><path style="opacity:1" fill="#acafb2" d="M 1519.5,1529.5 C 1521.75,1530.08 1523.42,1531.41 1524.5,1533.5C 1522.25,1532.92 1520.58,1531.59 1519.5,1529.5 Z"/></g>
<g><path style="opacity:1" fill="#72777c" d="M 1290.5,1530.5 C 1291.91,1530.97 1292.57,1531.97 1292.5,1533.5C 1291.09,1533.03 1290.43,1532.03 1290.5,1530.5 Z"/></g>
<g><path style="opacity:1" fill="#878a8e" d="M 1437.5,1537.5 C 1438.91,1537.97 1439.57,1538.97 1439.5,1540.5C 1438.09,1540.03 1437.43,1539.03 1437.5,1537.5 Z"/></g>
<g><path style="opacity:1" fill="#808489" d="M 1537.5,1542.5 C 1539.03,1542.43 1540.03,1543.09 1540.5,1544.5C 1538.97,1544.57 1537.97,1543.91 1537.5,1542.5 Z"/></g>
<g><path style="opacity:1" fill="#bdbec1" d="M 1301.5,1545.5 C 1303.75,1546.08 1305.42,1547.41 1306.5,1549.5C 1304.25,1548.92 1302.58,1547.59 1301.5,1545.5 Z"/></g>
<g><path style="opacity:1" fill="#686b6f" d="M 1543.5,1545.5 C 1545.03,1545.43 1546.03,1546.09 1546.5,1547.5C 1544.97,1547.57 1543.97,1546.91 1543.5,1545.5 Z"/></g>
<g><path style="opacity:1" fill="#65696d" d="M 1617.5,1544.5 C 1616.1,1545.93 1614.43,1547.1 1612.5,1548C 1611.21,1548.49 1609.87,1548.66 1608.5,1548.5C 1611.05,1546.42 1614.05,1545.08 1617.5,1544.5 Z"/></g>
<g><path style="opacity:1" fill="#94979a" d="M 951.5,1547.5 C 955.162,1547.72 958.495,1548.72 961.5,1550.5C 957.838,1550.28 954.505,1549.28 951.5,1547.5 Z"/></g>
<g><path style="opacity:1" fill="#565b5f" d="M 1099.5,1543.5 C 1101.91,1544.91 1103.58,1546.91 1104.5,1549.5C 1102.09,1548.09 1100.42,1546.09 1099.5,1543.5 Z"/></g>
<g><path style="opacity:1" fill="#909396" d="M 1035.5,1548.5 C 1031.46,1550.24 1027.12,1551.24 1022.5,1551.5C 1026.54,1549.76 1030.88,1548.76 1035.5,1548.5 Z"/></g>
<g><path style="opacity:1" fill="#93979a" d="M 1551.5,1548.5 C 1553.9,1548.26 1555.9,1548.93 1557.5,1550.5C 1555.1,1550.74 1553.1,1550.07 1551.5,1548.5 Z"/></g>
<g><path style="opacity:1" fill="#9a9da0" d="M 1306.5,1549.5 C 1308.4,1549.74 1309.74,1550.74 1310.5,1552.5C 1308.6,1552.26 1307.26,1551.26 1306.5,1549.5 Z"/></g>
<g><path style="opacity:1" fill="#8c8f92" d="M 1604.5,1549.5 C 1601.49,1551.17 1598.16,1551.84 1594.5,1551.5C 1597.63,1550.42 1600.96,1549.75 1604.5,1549.5 Z"/></g>
<g><path style="opacity:1" fill="#6b7075" d="M 962.5,1550.5 C 965.152,1550.41 967.485,1551.08 969.5,1552.5C 966.848,1552.59 964.515,1551.92 962.5,1550.5 Z"/></g>
<g><path style="opacity:1" fill="#aaadb0" d="M 1558.5,1550.5 C 1570.15,1551.3 1581.82,1551.64 1593.5,1551.5C 1593.08,1552.22 1592.42,1552.72 1591.5,1553C 1583.17,1553.67 1574.83,1553.67 1566.5,1553C 1563.62,1552.45 1560.95,1551.62 1558.5,1550.5 Z"/></g>
<g><path style="opacity:1" fill="#afb2b4" d="M 1019.5,1551.5 C 1003.9,1555.07 988.236,1555.4 972.5,1552.5C 988.181,1552.65 1003.85,1552.32 1019.5,1551.5 Z"/></g>
<g><path style="opacity:1" fill="#abaeb0" d="M 1671.5,1603.5 C 1670.83,1588.5 1670.17,1573.5 1669.5,1558.5C 1669.37,1557.62 1669.7,1556.96 1670.5,1556.5C 1671.5,1572.15 1671.83,1587.82 1671.5,1603.5 Z"/></g>
<g><path style="opacity:1" fill="#797e83" d="M 1226.5,1556.5 C 1228.25,1558.03 1229.25,1560.03 1229.5,1562.5C 1227.75,1560.97 1226.75,1558.97 1226.5,1556.5 Z"/></g>
<g><path style="opacity:1" fill="#868a8f" d="M 1381.5,1604.5 C 1381.17,1604.5 1380.83,1604.5 1380.5,1604.5C 1380.5,1588.5 1380.5,1572.5 1380.5,1556.5C 1375.17,1556.83 1369.83,1557.17 1364.5,1557.5C 1369.93,1555.99 1375.6,1555.32 1381.5,1555.5C 1381.5,1571.83 1381.5,1588.17 1381.5,1604.5 Z"/></g>
<g><path style="opacity:1" fill="#a0a3a6" d="M 1668.5,1559.5 C 1667.92,1561.75 1666.59,1563.42 1664.5,1564.5C 1664.73,1562.94 1665.4,1561.6 1666.5,1560.5C 1667.17,1560.17 1667.83,1559.83 1668.5,1559.5 Z"/></g>
<g><path style="opacity:1" fill="#afb2b5" d="M 1664.5,1564.5 C 1663.24,1567.43 1661.24,1569.76 1658.5,1571.5C 1659.76,1568.57 1661.76,1566.24 1664.5,1564.5 Z"/></g>
<g><path style="opacity:1" fill="#75797d" d="M 885.5,1585.5 C 887.027,1585.43 888.027,1586.09 888.5,1587.5C 886.973,1587.57 885.973,1586.91 885.5,1585.5 Z"/></g>
<g><path style="opacity:1" fill="#bbbdbf" d="M 1088.5,1585.5 C 1086.75,1588.37 1084.08,1589.71 1080.5,1589.5C 1082.85,1587.66 1085.52,1586.33 1088.5,1585.5 Z"/></g>
<g><path style="opacity:1" fill="#272e34" d="M 1737.5,1602.5 C 1737.5,1602.83 1737.5,1603.17 1737.5,1603.5C 1715.5,1603.5 1693.5,1603.5 1671.5,1603.5C 1671.83,1587.82 1671.5,1572.15 1670.5,1556.5C 1669.7,1556.96 1669.37,1557.62 1669.5,1558.5C 1668.83,1558.5 1668.5,1558.83 1668.5,1559.5C 1667.83,1559.83 1667.17,1560.17 1666.5,1560.5C 1666.59,1559.5 1666.25,1558.67 1665.5,1558C 1666.45,1557.52 1667.45,1557.35 1668.5,1557.5C 1668.23,1555.57 1668.73,1553.9 1670,1552.5C 1671.49,1553.25 1671.65,1554.09 1670.5,1555C 1672.48,1570.59 1673.14,1586.43 1672.5,1602.5C 1694.17,1602.5 1715.83,1602.5 1737.5,1602.5 Z"/></g>
<g><path style="opacity:1" fill="#a1a4a7" d="M 1064.5,1596.5 C 1056.36,1600.66 1047.7,1603.66 1038.5,1605.5C 1046.94,1602.13 1055.61,1599.13 1064.5,1596.5 Z"/></g>
<g><path style="opacity:1" fill="#979a9e" d="M 1616.5,1600.5 C 1612.94,1602.92 1608.94,1604.59 1604.5,1605.5C 1608.06,1603.08 1612.06,1601.41 1616.5,1600.5 Z"/></g>
<g><path style="opacity:1" fill="#85878c" d="M 1275.5,1603.5 C 1277.03,1603.43 1278.03,1604.09 1278.5,1605.5C 1276.97,1605.57 1275.97,1604.91 1275.5,1603.5 Z"/></g>
<g><path style="opacity:1" fill="#95989c" d="M 1510.5,1603.5 C 1513.4,1604.13 1516.06,1605.13 1518.5,1606.5C 1515.28,1606.65 1512.62,1605.65 1510.5,1603.5 Z"/></g>
<g><path style="opacity:1" fill="#7b7f83" d="M 930.5,1604.5 C 933.152,1604.41 935.485,1605.08 937.5,1606.5C 934.848,1606.59 932.515,1605.92 930.5,1604.5 Z"/></g>
<g><path style="opacity:1" fill="#5e6367" d="M 1280.5,1605.5 C 1287.58,1607.28 1294.58,1608.95 1301.5,1610.5C 1293.93,1610.72 1286.93,1609.06 1280.5,1605.5 Z"/></g>
<g><path style="opacity:1" fill="#8c8f94" d="M 1038.5,1605.5 C 1035.83,1607.12 1032.83,1607.78 1029.5,1607.5C 1032.27,1606.34 1035.27,1605.68 1038.5,1605.5 Z"/></g>
<g><path style="opacity:1" fill="#bfc2c4" d="M 1380.5,1604.5 C 1380.83,1604.5 1381.17,1604.5 1381.5,1604.5C 1377.87,1607.5 1373.54,1609.16 1368.5,1609.5C 1372.5,1607.83 1376.5,1606.17 1380.5,1604.5 Z"/></g>
<g><path style="opacity:1" fill="#7e8185" d="M 1518.5,1606.5 C 1521.15,1606.41 1523.49,1607.08 1525.5,1608.5C 1522.85,1608.59 1520.51,1607.92 1518.5,1606.5 Z"/></g>
<g><path style="opacity:1" fill="#999c9f" d="M 1029.5,1607.5 C 1027.49,1608.92 1025.15,1609.59 1022.5,1609.5C 1024.51,1608.08 1026.85,1607.41 1029.5,1607.5 Z"/></g>
<g><path style="opacity:1" fill="#8c9093" d="M 1526.5,1608.5 C 1529.15,1608.41 1531.49,1609.08 1533.5,1610.5C 1530.85,1610.59 1528.51,1609.92 1526.5,1608.5 Z"/></g>
<g><path style="opacity:1" fill="#b8bbbe" d="M 1367.5,1609.5 C 1365.49,1610.92 1363.15,1611.59 1360.5,1611.5C 1362.51,1610.08 1364.85,1609.41 1367.5,1609.5 Z"/></g>
<g><path style="opacity:1" fill="#494f54" d="M 366.5,1478.5 C 367.499,1523 367.832,1567.66 367.5,1612.5C 343.167,1612.5 318.833,1612.5 294.5,1612.5C 294.5,1612.17 294.5,1611.83 294.5,1611.5C 294.833,1611.5 295.167,1611.5 295.5,1611.5C 319.167,1611.5 342.833,1611.5 366.5,1611.5C 366.5,1567.17 366.5,1522.83 366.5,1478.5 Z"/></g>
<g><path style="opacity:1" fill="#4b5156" d="M 685.5,1574.5 C 685.833,1574.5 686.167,1574.5 686.5,1574.5C 686.5,1586.83 686.5,1599.17 686.5,1611.5C 710.5,1611.5 734.5,1611.5 758.5,1611.5C 758.5,1611.83 758.5,1612.17 758.5,1612.5C 734.167,1612.5 709.833,1612.5 685.5,1612.5C 685.5,1599.83 685.5,1587.17 685.5,1574.5 Z"/></g>
<g><path style="opacity:1" fill="#bcbfc1" d="M 1020.5,1609.5 C 1014.82,1611.6 1008.82,1612.6 1002.5,1612.5C 1008.31,1611.14 1014.31,1610.14 1020.5,1609.5 Z"/></g>
<g><path style="opacity:1" fill="#757a7e" d="M 1535.5,1610.5 C 1549.48,1611.32 1563.48,1611.65 1577.5,1611.5C 1571.84,1612.17 1566.01,1612.5 1560,1612.5C 1551.61,1612.7 1543.44,1612.04 1535.5,1610.5 Z"/></g>
</svg>
